<?xml version="1.0" encoding="UTF-8"?>
<svg version="1.1" xmlns="http://www.w3.org/2000/svg" width="920" height="920">
<path d="M0 0 C1.19794189 -0.00315216 2.39588379 -0.00630432 3.63012695 -0.009552 C4.93425537 -0.00752777 6.23838379 -0.00550354 7.58203125 -0.00341797 C8.9234214 -0.00409107 10.26481144 -0.00506115 11.60620117 -0.00631714 C14.42074746 -0.00779382 17.23526207 -0.00564051 20.04980469 -0.00097656 C23.66493756 0.00472073 27.2799962 0.00144156 30.89512634 -0.00454903 C33.66598067 -0.00815544 36.43681727 -0.00701569 39.20767212 -0.00442123 C41.19142708 -0.0034258 43.17518272 -0.00647288 45.15893555 -0.009552 C46.95584839 -0.00482376 46.95584839 -0.00482376 48.7890625 0 C49.84971924 0.00079559 50.91037598 0.00159119 52.00317383 0.00241089 C54.39453125 0.12939453 54.39453125 0.12939453 55.39453125 1.12939453 C57.55434803 1.33522662 59.72024921 1.47768319 61.88671875 1.59423828 C63.24609928 1.67291875 64.60547409 1.75169823 65.96484375 1.83056641 C68.10144827 1.9489695 70.23814169 2.06522387 72.375 2.17895508 C95.70526092 3.4401242 95.70526092 3.4401242 98.39453125 6.12939453 C99.89116471 6.28974812 101.39248364 6.40703959 102.89453125 6.50439453 C106.38367397 6.81486909 109.36633912 7.34065349 112.64453125 8.56689453 C116.57814074 10.0157507 120.3621443 10.60642514 124.51953125 11.12939453 C129.68396353 11.79701879 133.65266296 12.93408514 138.39453125 15.12939453 C141.42500727 15.95218506 144.46712075 16.67984692 147.52734375 17.38330078 C150.27811887 18.09910194 152.76869358 19.05212779 155.39453125 20.12939453 C157.01406847 20.62671223 158.63927091 21.10594233 160.26953125 21.56689453 C163.77218514 22.59557409 167.03329399 23.80322718 170.359375 25.32080078 C173.10983656 26.41359453 175.9264355 27.18408069 178.76953125 28.00439453 C183.68074358 29.47327311 187.77416832 31.27805684 192.1484375 33.91064453 C194.68703131 35.28810761 197.22397908 36.19963193 199.95703125 37.12939453 C204.18193123 38.58847927 207.60266551 40.36619761 211.30078125 42.84423828 C213.75007803 44.34763127 216.26283028 45.47621787 218.89453125 46.62939453 C223.02193393 48.44545171 226.74171562 50.4861705 230.5078125 52.95361328 C232.38283404 54.12210497 234.2705675 55.06675684 236.26953125 56.00439453 C240.49894929 58.04819615 244.20467826 60.69281296 248 63.44580078 C250.40240546 65.13493088 252.86690995 66.63617931 255.39453125 68.12939453 C256.28140625 68.72751953 257.16828125 69.32564453 258.08203125 69.94189453 C259.9052291 71.14589311 261.74618548 72.32807613 263.6484375 73.40283203 C269.47271151 76.7023425 274.2331104 80.44929094 279.0703125 85.07861328 C281.38680767 87.12257961 283.73116947 88.58134338 286.39453125 90.12939453 C287.72786458 91.46272786 289.06119792 92.7960612 290.39453125 94.12939453 C291.15765625 94.56251953 291.92078125 94.99564453 292.70703125 95.44189453 C295.7885456 97.37679889 297.98823694 99.65803656 300.453125 102.31298828 C302.39795943 104.24937082 302.39795943 104.24937082 305.03686523 105.78051758 C309.1929733 108.52170687 312.56099684 112.00936015 316.05859375 115.52783203 C316.77308685 116.24041168 317.48757996 116.95299133 318.22372437 117.68716431 C319.72712944 119.1892135 321.2280323 120.69377091 322.7265625 122.20068359 C325.01212897 124.49695757 327.30816498 126.78236994 329.60546875 129.06689453 C331.06965208 130.53239956 332.53321483 131.99852492 333.99609375 133.46533203 C334.678461 134.14365082 335.36082825 134.8219696 336.06387329 135.52084351 C339.69139692 139.1840434 342.66473623 142.75865077 345.39453125 147.12939453 C346.52100287 148.33491679 347.68470052 149.50755149 348.89453125 150.62939453 C351.91056127 153.54231242 354.13744658 156.58254719 356.39453125 160.12939453 C356.91015625 160.64501953 357.42578125 161.16064453 357.95703125 161.69189453 C359.39453125 163.12939453 359.39453125 163.12939453 360.7421875 165.45361328 C362.37664405 168.10042826 364.12990005 170.13153296 366.26953125 172.37939453 C369.5774955 176.01936249 371.93125985 179.58497179 374.1796875 183.93798828 C375.83852773 186.93030137 377.89448759 189.52968906 379.98828125 192.22705078 C381.29814125 193.99900028 382.39286368 195.76523632 383.45703125 197.69189453 C384.87439212 200.20656704 386.24579476 202.34265291 387.95703125 204.62939453 C389.66329897 206.95612324 390.67597603 208.79017792 391.83203125 211.50439453 C393.14628076 214.55345339 394.44705364 216.76051387 396.33203125 219.44189453 C399.00651314 223.3254788 400.69820996 227.13212815 402.3359375 231.53564453 C403.4768512 234.33109359 404.8478765 236.8759678 406.33203125 239.50439453 C409.04740394 244.33172376 411.19782116 249.24981073 413.21875 254.40283203 C414.32437624 257.15031103 414.32437624 257.15031103 415.9140625 259.58251953 C417.60712527 262.49512356 418.4719559 265.26769269 419.39453125 268.50439453 C420.93337454 273.74986351 420.93337454 273.74986351 422.95703125 278.81689453 C424.83806324 283.15144651 426.09266199 287.59319381 427.39453125 292.12939453 C429.42491013 299.14057891 429.42491013 299.14057891 431.89453125 306.00439453 C435.20760195 314.66669395 436.80850921 323.85510291 438.39257812 332.96142578 C438.75322881 336.33336592 438.75322881 336.33336592 440.39453125 339.12939453 C440.71690337 341.70837147 440.90720429 344.28871274 441.11328125 346.87939453 C441.1565379 349.09604805 441.1565379 349.09604805 442.39453125 350.12939453 C444.67295512 358.9950223 444.97293989 368.15896132 445.45703125 377.25439453 C445.57272535 379.38162653 445.69043442 381.50866764 445.81382751 383.63546753 C445.92396104 385.53826964 446.02675724 387.44149224 446.12915039 389.34472656 C446.08722934 392.03437049 446.08722934 392.03437049 447.39453125 393.12939453 C447.49363685 394.99575241 447.52252386 396.86587647 447.52392578 398.73486328 C447.52865402 400.53177612 447.52865402 400.53177612 447.53347778 402.36499023 C447.53145355 403.66911865 447.52942932 404.97324707 447.52734375 406.31689453 C447.52801685 407.65828468 447.52898693 408.99967472 447.53024292 410.34106445 C447.53171961 413.15561074 447.52956629 415.97012535 447.52490234 418.78466797 C447.51920506 422.39980084 447.52248422 426.01485948 447.52847481 429.62998962 C447.53208122 432.40084395 447.53094147 435.17168055 447.52834702 437.9425354 C447.52735158 439.92629036 447.53039866 441.910046 447.53347778 443.89379883 C447.53032562 445.09174072 447.52717346 446.28968262 447.52392578 447.52392578 C447.52273239 449.11491089 447.52273239 449.11491089 447.52151489 450.73803711 C447.39453125 453.12939453 447.39453125 453.12939453 446.39453125 454.12939453 C446.20087572 456.26604788 446.07007451 458.40844045 445.96484375 460.55126953 C445.89100769 461.90155093 445.81677482 463.25181067 445.7421875 464.60205078 C445.63016173 466.72084113 445.52142613 468.83963943 445.42041016 470.95898438 C445.01373373 479.31668095 444.18545708 487.25679573 442.06005859 495.39306641 C441.44677546 497.91459149 441.09963792 500.29692844 440.89453125 502.87939453 C440.62482572 505.92321403 440.01406517 508.45080753 438.95703125 511.31689453 C437.51836092 515.27150041 436.92004079 519.08123057 436.39453125 523.25439453 C435.72690699 528.41882681 434.58984064 532.38752624 432.39453125 537.12939453 C431.57174072 540.15987056 430.84407886 543.20198403 430.140625 546.26220703 C429.42482384 549.01298215 428.47179799 551.50355686 427.39453125 554.12939453 C426.89721355 555.74893175 426.41798345 557.3741342 425.95703125 559.00439453 C424.92835169 562.50704842 423.72069861 565.76815727 422.203125 569.09423828 C421.11033125 571.84469984 420.33984509 574.66129878 419.51953125 577.50439453 C418.05065268 582.41560686 416.24586894 586.5090316 413.61328125 590.88330078 C412.23581817 593.42189459 411.32429385 595.95884237 410.39453125 598.69189453 C408.93544651 602.91679451 407.15772817 606.33752879 404.6796875 610.03564453 C403.17629451 612.48494131 402.04770791 614.99769356 400.89453125 617.62939453 C399.07847407 621.75679721 397.03775528 625.4765789 394.5703125 629.24267578 C393.40182081 631.11769732 392.45716894 633.00543078 391.51953125 635.00439453 C389.47572963 639.23381257 386.83111282 642.93954154 384.078125 646.73486328 C382.3889949 649.13726874 380.88774647 651.60177323 379.39453125 654.12939453 C378.79640625 655.01626953 378.19828125 655.90314453 377.58203125 656.81689453 C376.37803267 658.64009238 375.19584966 660.48104876 374.12109375 662.38330078 C370.82158328 668.20757479 367.07463484 672.96797368 362.4453125 677.80517578 C360.40134617 680.12167095 358.9425824 682.46603275 357.39453125 685.12939453 C356.06119792 686.46272786 354.72786458 687.7960612 353.39453125 689.12939453 C352.96140625 689.89251953 352.52828125 690.65564453 352.08203125 691.44189453 C350.14712689 694.52340888 347.86588922 696.72310022 345.2109375 699.18798828 C343.27455496 701.13282271 343.27455496 701.13282271 341.7434082 703.77172852 C339.00221891 707.92783658 335.51456563 711.29586012 331.99609375 714.79345703 C331.2835141 715.50795013 330.57093445 716.22244324 329.83676147 716.95858765 C328.33471228 718.46199273 326.83015488 719.96289558 325.32324219 721.46142578 C323.02696821 723.74699225 320.74155584 726.04302826 318.45703125 728.34033203 C316.99152622 729.80451536 315.52540086 731.26807811 314.05859375 732.73095703 C313.38027496 733.41332428 312.70195618 734.09569153 312.00308228 734.79873657 C308.33988238 738.4262602 304.76527501 741.39959951 300.39453125 744.12939453 C299.18900899 745.25586615 298.01637429 746.4195638 296.89453125 747.62939453 C293.98161337 750.64542455 290.94137859 752.87230986 287.39453125 755.12939453 C286.87890625 755.64501953 286.36328125 756.16064453 285.83203125 756.69189453 C284.39453125 758.12939453 284.39453125 758.12939453 282.0703125 759.47705078 C279.42349752 761.11150733 277.39239283 762.86476333 275.14453125 765.00439453 C271.50456329 768.31235878 267.93895399 770.66612313 263.5859375 772.91455078 C260.59362441 774.57339102 257.99423672 776.62935088 255.296875 778.72314453 C253.5249255 780.03300453 251.75868947 781.12772696 249.83203125 782.19189453 C247.31735874 783.6092554 245.18127287 784.98065804 242.89453125 786.69189453 C240.56780254 788.39816225 238.73374786 789.41083931 236.01953125 790.56689453 C232.97047239 791.88114404 230.76341191 793.18191692 228.08203125 795.06689453 C224.19844699 797.74137642 220.39179763 799.43307324 215.98828125 801.07080078 C213.1928322 802.21171448 210.64795798 803.58273978 208.01953125 805.06689453 C203.19220202 807.78226722 198.27411505 809.93268444 193.12109375 811.95361328 C190.37361475 813.05923952 190.37361475 813.05923952 187.94140625 814.64892578 C185.02880222 816.34198855 182.25623309 817.20681919 179.01953125 818.12939453 C173.77406227 819.66823782 173.77406227 819.66823782 168.70703125 821.69189453 C164.37247927 823.57292652 159.93073197 824.82752527 155.39453125 826.12939453 C148.38334687 828.15977342 148.38334687 828.15977342 141.51953125 830.62939453 C132.85723183 833.94246523 123.66882288 835.54337249 114.5625 837.12744141 C111.19055986 837.48809209 111.19055986 837.48809209 108.39453125 839.12939453 C105.81555431 839.45176665 103.23521304 839.64206757 100.64453125 839.84814453 C98.42787773 839.89140118 98.42787773 839.89140118 97.39453125 841.12939453 C88.52890348 843.4078184 79.36496446 843.70780318 70.26953125 844.19189453 C68.14229925 844.30758863 66.01525815 844.4252977 63.88845825 844.5486908 C61.98565615 844.65882432 60.08243354 844.76162052 58.17919922 844.86401367 C55.48955529 844.82209263 55.48955529 844.82209263 54.39453125 846.12939453 C52.52817337 846.22850014 50.65804931 846.25738714 48.7890625 846.25878906 C46.99214966 846.2635173 46.99214966 846.2635173 45.15893555 846.26834106 C43.85480713 846.26631683 42.55067871 846.2642926 41.20703125 846.26220703 C39.8656411 846.26288013 38.52425106 846.26385021 37.18286133 846.2651062 C34.36831504 846.26658289 31.55380043 846.26442957 28.73925781 846.25976562 C25.12412494 846.25406834 21.5090663 846.2573475 17.89393616 846.26333809 C15.12308183 846.2669445 12.35224523 846.26580475 9.58139038 846.2632103 C7.59763542 846.26221486 5.61387978 846.26526194 3.63012695 846.26834106 C2.43218506 846.2651889 1.23424316 846.26203674 0 846.25878906 C-1.06065674 846.25799347 -2.12131348 846.25719788 -3.21411133 846.25637817 C-5.60546875 846.12939453 -5.60546875 846.12939453 -6.60546875 845.12939453 C-8.76528553 844.92356244 -10.93118671 844.78110587 -13.09765625 844.66455078 C-14.45703678 844.58587031 -15.81641159 844.50709083 -17.17578125 844.42822266 C-19.31238577 844.30981956 -21.44907919 844.1935652 -23.5859375 844.07983398 C-46.91619842 842.81866486 -46.91619842 842.81866486 -49.60546875 840.12939453 C-51.10210221 839.96904095 -52.60342114 839.85174947 -54.10546875 839.75439453 C-57.59461147 839.44391997 -60.57727662 838.91813557 -63.85546875 837.69189453 C-67.78907824 836.24303837 -71.5730818 835.65236393 -75.73046875 835.12939453 C-80.89490103 834.46177027 -84.86360046 833.32470392 -89.60546875 831.12939453 C-92.63594477 830.306604 -95.67805825 829.57894214 -98.73828125 828.87548828 C-101.48905637 828.15968713 -103.97963108 827.20666127 -106.60546875 826.12939453 C-108.22500597 825.63207683 -109.85020841 825.15284673 -111.48046875 824.69189453 C-114.98312264 823.66321498 -118.24423149 822.45556189 -121.5703125 820.93798828 C-124.32077406 819.84519453 -127.137373 819.07470837 -129.98046875 818.25439453 C-134.89168108 816.78551596 -138.98510582 814.98073222 -143.359375 812.34814453 C-145.89796881 810.97068146 -148.43491658 810.05915713 -151.16796875 809.12939453 C-155.39286873 807.6703098 -158.81360301 805.89259145 -162.51171875 803.41455078 C-164.96101553 801.91115779 -167.47376778 800.78257119 -170.10546875 799.62939453 C-174.23287143 797.81333735 -177.95265312 795.77261856 -181.71875 793.30517578 C-183.59377154 792.1366841 -185.481505 791.19203222 -187.48046875 790.25439453 C-191.70988679 788.21059291 -195.41561576 785.56597611 -199.2109375 782.81298828 C-201.61334296 781.12385818 -204.07784745 779.62260975 -206.60546875 778.12939453 C-207.49234375 777.53126953 -208.37921875 776.93314453 -209.29296875 776.31689453 C-211.1161666 775.11289595 -212.95712298 773.93071294 -214.859375 772.85595703 C-220.68364901 769.55644656 -225.4440479 765.80949812 -230.28125 761.18017578 C-232.60066902 759.13362959 -234.92451109 757.65691692 -237.60546875 756.12939453 C-241.46871238 753.20585881 -245.06541607 749.98556032 -248.69921875 746.78564453 C-250.13993244 745.5338769 -251.61513851 744.32165872 -253.10546875 743.12939453 C-261.4032975 736.49113153 -268.87496956 729.0461324 -276.37939453 721.54077148 C-278.35951214 719.56285564 -280.34751951 717.5931021 -282.3359375 715.62353516 C-283.60856193 714.35384281 -284.88071398 713.08367679 -286.15234375 711.81298828 C-286.74094177 711.23157578 -287.32953979 710.65016327 -287.93597412 710.0511322 C-291.34180025 706.62640818 -294.02431139 703.20987084 -296.60546875 699.12939453 C-297.75283311 697.90307176 -298.93723298 696.70952394 -300.16796875 695.56689453 C-302.88424965 692.94308276 -304.73450923 690.42584701 -306.60546875 687.12939453 C-307.26546875 686.46939453 -307.92546875 685.80939453 -308.60546875 685.12939453 C-310.60546875 683.12939453 -310.60546875 683.12939453 -311.98828125 680.77001953 C-313.604864 678.130382 -315.35124789 676.11631917 -317.48046875 673.87939453 C-320.788433 670.23942657 -323.14219735 666.67381727 -325.390625 662.32080078 C-327.04946523 659.32848769 -329.10542509 656.72910001 -331.19921875 654.03173828 C-332.50907875 652.25978878 -333.60380118 650.49355275 -334.66796875 648.56689453 C-336.08532962 646.05222202 -337.45673226 643.91613616 -339.16796875 641.62939453 C-340.87423647 639.30266582 -341.88691353 637.46861114 -343.04296875 634.75439453 C-344.35721826 631.70533567 -345.65799114 629.49827519 -347.54296875 626.81689453 C-350.21745064 622.93331027 -351.90914746 619.12666091 -353.546875 614.72314453 C-354.6877887 611.92769548 -356.058814 609.38282126 -357.54296875 606.75439453 C-360.25834144 601.92706531 -362.40875866 597.00897833 -364.4296875 591.85595703 C-365.53531374 589.10847803 -365.53531374 589.10847803 -367.125 586.67626953 C-368.81806277 583.7636655 -369.6828934 580.99109637 -370.60546875 577.75439453 C-372.14431204 572.50892555 -372.14431204 572.50892555 -374.16796875 567.44189453 C-376.04900074 563.10734255 -377.30359949 558.66559525 -378.60546875 554.12939453 C-380.63584763 547.11821015 -380.63584763 547.11821015 -383.10546875 540.25439453 C-386.41853945 531.59209511 -388.01944671 522.40368616 -389.60351562 513.29736328 C-389.96416631 509.92542314 -389.96416631 509.92542314 -391.60546875 507.12939453 C-391.92784087 504.5504176 -392.11814179 501.97007632 -392.32421875 499.37939453 C-392.3674754 497.16274101 -392.3674754 497.16274101 -393.60546875 496.12939453 C-395.88389262 487.26376677 -396.18387739 478.09982775 -396.66796875 469.00439453 C-396.78366285 466.87716253 -396.90137192 464.75012143 -397.02476501 462.62332153 C-397.13489854 460.72051943 -397.23769474 458.81729682 -397.34008789 456.9140625 C-397.29816684 454.22441857 -397.29816684 454.22441857 -398.60546875 453.12939453 C-398.70457435 451.26303665 -398.73346136 449.39291259 -398.73486328 447.52392578 C-398.73801544 446.32598389 -398.7411676 445.12804199 -398.74441528 443.89379883 C-398.74239105 442.58967041 -398.74036682 441.28554199 -398.73828125 439.94189453 C-398.73895435 438.60050438 -398.73992443 437.25911434 -398.74118042 435.91772461 C-398.74265711 433.10317832 -398.74050379 430.28866371 -398.73583984 427.47412109 C-398.73014256 423.85898822 -398.73342172 420.24392958 -398.73941231 416.62879944 C-398.74301872 413.85794511 -398.74187897 411.08710851 -398.73928452 408.31625366 C-398.73828908 406.3324987 -398.74133616 404.34874306 -398.74441528 402.36499023 C-398.74126312 401.16704834 -398.73811096 399.96910645 -398.73486328 398.73486328 C-398.73406769 397.67420654 -398.73327209 396.6135498 -398.73245239 395.52075195 C-398.60546875 393.12939453 -398.60546875 393.12939453 -397.60546875 392.12939453 C-397.39963666 389.96957775 -397.25718009 387.80367657 -397.140625 385.63720703 C-397.06194453 384.2778265 -396.98316505 382.91845169 -396.90429688 381.55908203 C-396.78589378 379.42247751 -396.66963941 377.28578409 -396.5559082 375.14892578 C-395.29473908 351.81866486 -395.29473908 351.81866486 -392.60546875 349.12939453 C-392.44511516 347.63276107 -392.32782369 346.13144214 -392.23046875 344.62939453 C-391.91999419 341.14025181 -391.39420979 338.15758667 -390.16796875 334.87939453 C-388.71911258 330.94578504 -388.12843814 327.16178148 -387.60546875 323.00439453 C-386.93784449 317.83996225 -385.80077814 313.87126282 -383.60546875 309.12939453 C-382.78267822 306.09891851 -382.05501636 303.05680504 -381.3515625 299.99658203 C-380.63576134 297.24580691 -379.68273549 294.75523221 -378.60546875 292.12939453 C-378.10815105 290.50985731 -377.62892095 288.88465487 -377.16796875 287.25439453 C-376.13928919 283.75174064 -374.93163611 280.49063179 -373.4140625 277.16455078 C-372.32126875 274.41408922 -371.55078259 271.59749029 -370.73046875 268.75439453 C-369.26159018 263.8431822 -367.45680644 259.74975746 -364.82421875 255.37548828 C-363.44675567 252.83689447 -362.53523135 250.2999467 -361.60546875 247.56689453 C-360.14638401 243.34199455 -358.36866567 239.92126027 -355.890625 236.22314453 C-354.38723201 233.77384775 -353.25864541 231.26109551 -352.10546875 228.62939453 C-350.28941157 224.50199185 -348.24869278 220.78221016 -345.78125 217.01611328 C-344.61275831 215.14109174 -343.66810644 213.25335828 -342.73046875 211.25439453 C-340.68666713 207.02497649 -338.04205032 203.31924753 -335.2890625 199.52392578 C-333.5999324 197.12152033 -332.09868397 194.65701583 -330.60546875 192.12939453 C-330.00734375 191.24251953 -329.40921875 190.35564453 -328.79296875 189.44189453 C-327.58897017 187.61869668 -326.40678716 185.7777403 -325.33203125 183.87548828 C-322.03252078 178.05121427 -318.28557234 173.29081538 -313.65625 168.45361328 C-311.60970381 166.13419426 -310.13299114 163.81035219 -308.60546875 161.12939453 C-305.68193303 157.2661509 -302.46163454 153.66944721 -299.26171875 150.03564453 C-298.00995112 148.59493084 -296.79773294 147.11972477 -295.60546875 145.62939453 C-288.96720575 137.33156578 -281.52220662 129.85989372 -274.0168457 122.35546875 C-272.03892986 120.37535115 -270.06917632 118.38734377 -268.09960938 116.39892578 C-266.82991703 115.12630136 -265.55975101 113.8541493 -264.2890625 112.58251953 C-263.70764999 111.99392151 -263.12623749 111.40532349 -262.52720642 110.79888916 C-259.1024824 107.39306303 -255.68594506 104.71055189 -251.60546875 102.12939453 C-250.37914598 100.98203017 -249.18559816 99.7976303 -248.04296875 98.56689453 C-245.41915698 95.85061363 -242.90192123 94.00035405 -239.60546875 92.12939453 C-238.94546875 91.46939453 -238.28546875 90.80939453 -237.60546875 90.12939453 C-235.60546875 88.12939453 -235.60546875 88.12939453 -233.24609375 86.74658203 C-230.60645622 85.12999929 -228.59239339 83.38361539 -226.35546875 81.25439453 C-222.71550079 77.94643028 -219.14989149 75.59266593 -214.796875 73.34423828 C-211.80456191 71.68539805 -209.20517422 69.62943819 -206.5078125 67.53564453 C-204.735863 66.22578453 -202.96962697 65.1310621 -201.04296875 64.06689453 C-198.52829624 62.64953366 -196.39221037 61.27813103 -194.10546875 59.56689453 C-191.77874004 57.86062681 -189.94468536 56.84794975 -187.23046875 55.69189453 C-184.18140989 54.37764502 -181.97434941 53.07687215 -179.29296875 51.19189453 C-175.40938449 48.51741264 -171.60273513 46.82571582 -167.19921875 45.18798828 C-164.4037697 44.04707459 -161.85889548 42.67604928 -159.23046875 41.19189453 C-154.40313952 38.47652184 -149.48505255 36.32610462 -144.33203125 34.30517578 C-141.58455225 33.19954955 -141.58455225 33.19954955 -139.15234375 31.60986328 C-136.23973972 29.91680051 -133.46717059 29.05196988 -130.23046875 28.12939453 C-124.98499977 26.59055124 -124.98499977 26.59055124 -119.91796875 24.56689453 C-115.58341677 22.68586254 -111.14166947 21.4312638 -106.60546875 20.12939453 C-99.59428437 18.09901565 -99.59428437 18.09901565 -92.73046875 15.62939453 C-84.06816933 12.31632384 -74.87976038 10.71541657 -65.7734375 9.13134766 C-62.40149736 8.77069697 -62.40149736 8.77069697 -59.60546875 7.12939453 C-57.02649181 6.80702241 -54.44615054 6.61672149 -51.85546875 6.41064453 C-49.63881523 6.36738788 -49.63881523 6.36738788 -48.60546875 5.12939453 C-39.73984098 2.85097066 -30.57590196 2.55098589 -21.48046875 2.06689453 C-19.35323675 1.95120043 -17.22619565 1.83349136 -15.09939575 1.71009827 C-13.19659365 1.59996474 -11.29337104 1.49716854 -9.39013672 1.39477539 C-5.88103426 1.0603554 -3.84851006 0.00288675 0 0 Z " fill="#6E82C9" transform="translate(435.60546875,36.87060546875)"/>
<path d="M0 0 C1.1015625 1.73046875 1.1015625 1.73046875 1.1015625 5.73046875 C-0.07599609 6.00310547 -0.07599609 6.00310547 -1.27734375 6.28125 C-7.99762479 7.88898321 -7.99762479 7.88898321 -14.4609375 10.29296875 C-18.43965485 11.956796 -22.18868588 12.53474786 -26.4453125 13.10546875 C-29.23036984 13.8150375 -29.93675872 14.73226935 -31.8984375 16.73046875 C-34.1328125 17.3203125 -34.1328125 17.3203125 -36.6484375 17.66796875 C-41.59560261 18.53551509 -44.66005822 20.06185957 -48.8984375 22.73046875 C-60.20278533 28.73046875 -60.20278533 28.73046875 -64.8984375 28.73046875 C-64.8984375 29.39046875 -64.8984375 30.05046875 -64.8984375 30.73046875 C-65.46949219 30.93800781 -66.04054688 31.14554687 -66.62890625 31.359375 C-79.83336579 36.32761889 -79.83336579 36.32761889 -90.8984375 44.73046875 C-92.5619854 45.40488006 -94.22910692 46.07050085 -95.8984375 46.73046875 C-97.92457033 48.02374503 -99.92358545 49.36016325 -101.8984375 50.73046875 C-102.9503125 51.41109375 -104.0021875 52.09171875 -105.0859375 52.79296875 C-107.7992295 54.53690532 -107.7992295 54.53690532 -109.4609375 56.29296875 C-111.37577409 58.20780534 -113.56659444 59.36548744 -115.8984375 60.73046875 C-117.24475575 61.7129172 -118.58285047 62.70723439 -119.8984375 63.73046875 C-118.2484375 63.73046875 -116.5984375 63.73046875 -114.8984375 63.73046875 C-114.8984375 63.07046875 -114.8984375 62.41046875 -114.8984375 61.73046875 C-114.11597656 61.46492188 -113.33351563 61.199375 -112.52734375 60.92578125 C-111.51542969 60.57257813 -110.50351562 60.219375 -109.4609375 59.85546875 C-108.45160156 59.50742187 -107.44226563 59.159375 -106.40234375 58.80078125 C-103.75871999 57.98991782 -103.75871999 57.98991782 -102.8984375 55.73046875 C-100.81640625 54.6171875 -100.81640625 54.6171875 -98.0859375 53.41796875 C-97.0959375 52.98226562 -96.1059375 52.5465625 -95.0859375 52.09765625 C-74.77280936 43.38491746 -74.77280936 43.38491746 -68.8984375 43.73046875 C-68.5684375 42.74046875 -68.2384375 41.75046875 -67.8984375 40.73046875 C-64.5984375 40.40046875 -61.2984375 40.07046875 -57.8984375 39.73046875 C-57.8984375 39.07046875 -57.8984375 38.41046875 -57.8984375 37.73046875 C-57.20621094 37.64410156 -56.51398438 37.55773437 -55.80078125 37.46875 C-49.95611484 36.62939738 -44.63767074 35.37824151 -39.0859375 33.35546875 C-29.63748152 30.02882487 -19.87525469 28.63487869 -9.9987793 27.13183594 C-7.85114938 26.81990025 -7.85114938 26.81990025 -5.8984375 25.73046875 C-3.60034214 25.42176937 -1.30123621 25.22163227 1.0078125 25.01171875 C3.15600183 24.83831375 3.15600183 24.83831375 5.1015625 23.73046875 C7.69300155 23.42001349 10.28527982 23.22072963 12.88671875 23.01171875 C15.07226918 22.96389465 15.07226918 22.96389465 16.1015625 21.73046875 C18.70989372 21.51826553 21.30132082 21.35390536 23.9140625 21.23046875 C29.03492108 21.07020394 29.03492108 21.07020394 34.06689453 20.23266602 C58.53531876 14.19336332 90.12992193 18.27374598 115.2265625 19.66796875 C116.02348511 19.7114444 116.82040771 19.75492004 117.64147949 19.79971313 C119.88124775 19.92476851 122.12033424 20.05789821 124.359375 20.1953125 C125.6395752 20.27386475 126.91977539 20.35241699 128.23876953 20.43334961 C131.1015625 20.73046875 131.1015625 20.73046875 132.1015625 21.73046875 C133.76360737 21.93822436 135.43185741 22.0976513 137.1015625 22.23046875 C141.99045139 22.61935764 141.99045139 22.61935764 143.1015625 23.73046875 C144.61625698 23.9623974 146.13910812 24.14262113 147.6640625 24.29296875 C148.49035156 24.37675781 149.31664062 24.46054687 150.16796875 24.546875 C150.80605469 24.60746094 151.44414063 24.66804688 152.1015625 24.73046875 C152.1015625 25.39046875 152.1015625 26.05046875 152.1015625 26.73046875 C153.1121875 26.87484375 154.1228125 27.01921875 155.1640625 27.16796875 C156.4634375 27.35359375 157.7628125 27.53921875 159.1015625 27.73046875 C160.2359375 27.85421875 161.3703125 27.97796875 162.5390625 28.10546875 C165.80031735 28.67761872 168.55688375 29.62388251 171.6171875 30.8515625 C174.81564884 31.98309363 178.06202914 32.77637208 181.3515625 33.60546875 C187.16525883 35.08400134 192.51798614 37.08840265 198 39.51171875 C201.51249209 40.89194234 205.06996198 41.83195585 208.7265625 42.73046875 C215.06236898 44.33545344 220.41696448 46.5531845 226.1015625 49.73046875 C231.49260347 52.60498864 236.87260818 54.79344991 242.68359375 56.703125 C245.1015625 57.73046875 245.1015625 57.73046875 246.55078125 59.2890625 C248.81734908 61.39577164 251.10034542 61.39700019 254.1015625 61.73046875 C251.75080929 59.97572376 249.39617193 58.2266403 247.0390625 56.48046875 C246.38228516 55.98933594 245.72550781 55.49820313 245.04882812 54.9921875 C240.87464831 51.90781818 236.65729798 49.21864677 232.1015625 46.73046875 C232.1015625 46.07046875 232.1015625 45.41046875 232.1015625 44.73046875 C231.2971875 44.68921875 230.4928125 44.64796875 229.6640625 44.60546875 C225.4806966 43.57797537 222.9005987 41.74634962 219.41796875 39.2890625 C217.22223887 37.81166583 215.04608218 36.6260862 212.6640625 35.48046875 C209.1015625 33.73046875 209.1015625 33.73046875 207.1015625 31.73046875 C205.35009306 31.03382954 203.57531855 30.3948331 201.7890625 29.79296875 C197.86634532 28.47112544 194.63672645 26.86440281 191.1015625 24.73046875 C186.39726728 22.57570415 181.65223003 20.86773667 176.7265625 19.29296875 C171.72475323 17.66827107 166.91306729 15.85547473 162.14453125 13.63671875 C156.03520854 10.9266559 149.58761543 9.26353581 143.1015625 7.73046875 C143.43801544 4.70239225 143.89084575 2.99923016 145.7890625 0.578125 C148.71862789 -1.76255816 150.14060899 -1.71860187 153.8515625 -1.58203125 C155.553125 -1.52789062 155.553125 -1.52789062 157.2890625 -1.47265625 C158.5471875 -1.405625 159.8053125 -1.33859375 161.1015625 -1.26953125 C162.16697266 -1.22022461 162.16697266 -1.22022461 163.25390625 -1.16992188 C176.83361895 -0.5374748 176.83361895 -0.5374748 178.1015625 0.73046875 C180.01331339 1.03406441 181.93151821 1.29722145 183.8515625 1.54296875 C193.40264917 2.9493925 202.31413562 5.78509342 211.1015625 9.73046875 C212.0503125 10.03984375 212.9990625 10.34921875 213.9765625 10.66796875 C217.32701372 11.80712216 220.47402688 13.20552347 223.69140625 14.671875 C226.07294649 15.71789997 228.47817385 16.63195421 230.9140625 17.54296875 C235.88625125 19.50426354 240.31355295 22.11540629 244.8828125 24.87109375 C248.30556115 26.84831263 251.79317338 28.57875347 255.3515625 30.29296875 C260.13998348 32.64230429 264.34958844 35.12299275 268.50390625 38.45703125 C270.57883125 40.11088345 272.80779302 41.40249695 275.1015625 42.73046875 C281.79201845 46.96320619 285.3488599 50.1605366 288.1015625 57.73046875 C288.1015625 58.72046875 288.1015625 59.71046875 288.1015625 60.73046875 C289.0915625 61.06046875 290.0815625 61.39046875 291.1015625 61.73046875 C292.11303711 63.42944336 292.11303711 63.42944336 293.00390625 65.6328125 C293.33519531 66.43654297 293.66648437 67.24027344 294.0078125 68.06835938 C294.348125 68.92623047 294.6884375 69.78410156 295.0390625 70.66796875 C295.56693359 71.96444336 295.56693359 71.96444336 296.10546875 73.28710938 C296.80008708 74.99664227 297.49014978 76.7080344 298.17529297 78.42138672 C298.93841143 80.32375215 299.72227885 82.21778079 300.51171875 84.109375 C303.1015625 90.33799563 303.1015625 90.33799563 303.1015625 93.73046875 C303.7615625 93.73046875 304.4215625 93.73046875 305.1015625 93.73046875 C305.29492188 94.33375 305.48828125 94.93703125 305.6875 95.55859375 C305.94789063 96.3578125 306.20828125 97.15703125 306.4765625 97.98046875 C306.85941406 99.16382813 306.85941406 99.16382813 307.25 100.37109375 C308.04546955 102.73342831 308.04546955 102.73342831 309.1953125 104.85546875 C310.34619235 107.23659947 310.24656497 109.12042431 310.1015625 111.73046875 C310.7615625 111.73046875 311.4215625 111.73046875 312.1015625 111.73046875 C315.94784215 122.34341154 319.61985067 132.88068189 322.27734375 143.859375 C322.99122214 146.89383427 322.99122214 146.89383427 325.1015625 149.73046875 C325.63524009 151.35944275 326.10785701 153.00892388 326.5390625 154.66796875 C326.92191406 156.13169922 326.92191406 156.13169922 327.3125 157.625 C327.57289063 158.64980469 327.83328125 159.67460937 328.1015625 160.73046875 C328.36195313 161.74496094 328.62234375 162.75945312 328.890625 163.8046875 C330.22441527 169.06574913 331.48710829 174.33462271 332.62890625 179.640625 C333.10616762 181.75083025 333.66204099 183.82963394 334.2265625 185.91796875 C335.01675409 189.36094638 335.27705864 192.22054586 335.1015625 195.73046875 C335.7615625 195.73046875 336.4215625 195.73046875 337.1015625 195.73046875 C337.2459375 196.86484375 337.3903125 197.99921875 337.5390625 199.16796875 C337.71327728 202.53824076 337.71327728 202.53824076 339.1015625 203.73046875 C339.64654393 206.89044509 340.06739361 210.06164302 340.50390625 213.23828125 C341.02847786 216.73415965 341.02847786 216.73415965 342.1015625 220.046875 C343.32091918 224.53848966 343.75528464 228.91844701 344.1640625 233.54296875 C344.31809289 235.23730301 344.47548091 236.93133642 344.63671875 238.625 C344.7025415 239.36596924 344.76836426 240.10693848 344.83618164 240.87036133 C345.01415119 242.81931454 345.01415119 242.81931454 346.1015625 244.73046875 C346.40140314 247.23478745 346.6484743 249.72197082 346.85546875 252.234375 C346.95397629 253.39577751 346.95397629 253.39577751 347.05447388 254.5806427 C348.42520569 271.16912148 349.48967415 287.78671803 349.74215698 304.43283081 C349.77317118 306.19999414 349.8178051 307.96697633 349.8767395 309.73342896 C350.36256777 325.21052941 350.36256777 325.21052941 345.43359375 331.4765625 C344.0228047 332.92758824 342.5806391 334.34911656 341.1015625 335.73046875 C340.04957427 336.91277119 339.00677903 338.10336648 337.9765625 339.3046875 C337.02306732 340.34689497 336.06476549 341.38472654 335.1015625 342.41796875 C334.5873877 342.97049316 334.07321289 343.52301758 333.54345703 344.09228516 C327.35950078 350.66745943 320.81296147 356.06963872 313.359375 361.1640625 C311.6213278 362.36987033 309.94088718 363.65900901 308.2890625 364.98046875 C305.99488692 366.81580921 303.63544502 368.24722044 301.1015625 369.73046875 C300.1115625 370.41109375 299.1215625 371.09171875 298.1015625 371.79296875 C295.43309142 373.51635632 293.04455895 374.59854704 290.1015625 375.73046875 C289.38613281 376.18292969 288.67070313 376.63539063 287.93359375 377.1015625 C284.54028711 379.05329887 281.01822478 380.39956467 277.3515625 381.73046875 C276.2831311 382.12129639 276.2831311 382.12129639 275.19311523 382.52001953 C273.78897745 383.03174975 272.38397475 383.54111433 270.97802734 384.04785156 C269.43570145 384.60891625 267.90205944 385.19379611 266.37109375 385.78515625 C261.10534234 387.74233819 256.71948584 387.99798891 251.1015625 387.73046875 C251.1015625 388.39046875 251.1015625 389.05046875 251.1015625 389.73046875 C248.7915625 389.73046875 246.4815625 389.73046875 244.1015625 389.73046875 C244.1015625 390.39046875 244.1015625 391.05046875 244.1015625 391.73046875 C237.3184261 393.15048983 231.03458343 393.95778091 224.1015625 393.73046875 C224.1015625 394.39046875 224.1015625 395.05046875 224.1015625 395.73046875 C206.32020258 397.03921711 206.32020258 397.03921711 201.3203125 394.08984375 C199.59035437 392.04120912 198.34280444 390.10050562 197.1015625 387.73046875 C196.57175781 387.02921875 196.04195312 386.32796875 195.49609375 385.60546875 C194.1015625 383.73046875 194.1015625 383.73046875 193.3515625 381.48046875 C191.42069425 377.23255861 188.22995156 374.15032262 185.1015625 370.73046875 C183.9489907 369.44481131 182.80260353 368.15356779 181.6640625 366.85546875 C181.17035156 366.30117188 180.67664063 365.746875 180.16796875 365.17578125 C179.1015625 363.73046875 179.1015625 363.73046875 179.1015625 361.73046875 C178.1115625 361.40046875 177.1215625 361.07046875 176.1015625 360.73046875 C176.828125 358.8203125 176.828125 358.8203125 178.1015625 356.73046875 C180.0625 355.859375 180.0625 355.859375 182.4765625 355.29296875 C187.69415884 353.92031622 192.49591713 351.96775499 197.4375 349.81640625 C199.66787523 348.90725036 201.75278552 348.23139275 204.1015625 347.73046875 C204.1015625 347.07046875 204.1015625 346.41046875 204.1015625 345.73046875 C204.75382812 345.488125 205.40609375 345.24578125 206.078125 344.99609375 C211.21959153 343.02443992 215.58770412 340.9277851 220.1015625 337.73046875 C222.73276817 336.16705711 225.37633894 334.62723451 228.02734375 333.09765625 C230.22756056 331.89570252 230.22756056 331.89570252 231.1015625 329.73046875 C231.83858398 329.29806885 232.57560547 328.86566895 233.33496094 328.42016602 C236.47815539 326.50046528 238.76979118 324.30471201 241.3671875 321.6953125 C241.84605408 321.2159877 242.32492065 320.7366629 242.81829834 320.24281311 C243.82232883 319.23577844 244.82394505 318.22633144 245.82324219 317.21459961 C247.35556781 315.66391545 248.895848 314.12148511 250.4375 312.58007812 C255.32483683 308.07047283 255.32483683 308.07047283 259.1015625 302.73046875 C258.0084375 303.16359375 256.9153125 303.59671875 255.7890625 304.04296875 C255.17417969 304.28660156 254.55929687 304.53023437 253.92578125 304.78125 C252.04054044 305.64298486 252.04054044 305.64298486 250.671875 307.18359375 C248.72703179 309.09940945 246.75703201 310.01170039 244.2890625 311.16796875 C241.42494649 312.5134372 238.87845992 313.88329555 236.26171875 315.67578125 C232.74356684 317.96323231 229.21190789 319.56022237 225.3515625 321.16796875 C220.72059776 323.12943654 216.21423563 325.14215251 211.7890625 327.54296875 C206.77263799 330.14091262 201.66798962 331.02143716 196.1015625 331.73046875 C195.7715625 332.72046875 195.4415625 333.71046875 195.1015625 334.73046875 C192.46875 335.72265625 192.46875 335.72265625 188.9765625 336.60546875 C187.68274412 336.94469253 186.38979596 337.28724956 185.09765625 337.6328125 C184.4310498 337.81054199 183.76444336 337.98827148 183.07763672 338.17138672 C180.01815697 339.03699194 177.03703855 340.1112236 174.0390625 341.16796875 C167.83289664 343.26051892 161.58737462 344.98363396 155.2265625 346.54296875 C154.35894287 346.76202881 153.49132324 346.98108887 152.59741211 347.20678711 C146.96231876 348.54503413 141.89238936 348.93519495 136.1015625 348.73046875 C136.1015625 349.39046875 136.1015625 350.05046875 136.1015625 350.73046875 C107.14459805 356.51878275 48.32831343 365.34384421 21.1015625 351.73046875 C19.75148856 351.55064918 18.39600146 351.41023508 17.0390625 351.29296875 C13.16619935 350.89338763 9.47309774 350.22471394 5.6875 349.328125 C3.69936258 348.868631 1.70270733 348.44587408 -0.296875 348.0390625 C-10.87450817 345.88519477 -10.87450817 345.88519477 -15.2109375 344.16796875 C-18.82391139 342.7595213 -22.21811111 341.95247967 -26.015625 341.2578125 C-27.8984375 340.73046875 -27.8984375 340.73046875 -29.8984375 338.73046875 C-32.01520552 337.93276735 -32.01520552 337.93276735 -34.4765625 337.29296875 C-35.39050781 337.03773438 -36.30445313 336.7825 -37.24609375 336.51953125 C-38.68275391 336.12894531 -38.68275391 336.12894531 -40.1484375 335.73046875 C-48.04303542 333.54892459 -55.71469828 331.29693642 -63.2734375 328.10546875 C-64.33304688 327.65945313 -65.39265625 327.2134375 -66.484375 326.75390625 C-67.28101563 326.41617187 -68.07765625 326.0784375 -68.8984375 325.73046875 C-68.8984375 325.07046875 -68.8984375 324.41046875 -68.8984375 323.73046875 C-69.45789063 323.60414063 -70.01734375 323.4778125 -70.59375 323.34765625 C-77.3607854 321.53546711 -85.91486212 318.71404413 -90.8984375 313.73046875 C-92.96717784 313.08794525 -92.96717784 313.08794525 -94.8984375 312.73046875 C-94.8984375 312.07046875 -94.8984375 311.41046875 -94.8984375 310.73046875 C-95.46433594 310.62734375 -96.03023438 310.52421875 -96.61328125 310.41796875 C-99.31297655 309.60575273 -101.15918442 308.35065366 -103.4609375 306.73046875 C-106.02718998 304.9301972 -107.90374339 303.72870012 -110.8984375 302.73046875 C-106.46376987 308.09875061 -101.66795548 313.09731974 -96.7734375 318.04296875 C-96.1757959 318.65350098 -95.5781543 319.2640332 -94.96240234 319.89306641 C-91.79097999 323.07153049 -88.84189359 325.52770355 -84.8984375 327.73046875 C-82.94739791 329.19173012 -81.01059698 330.67213248 -79.0859375 332.16796875 C-74.48338864 335.65663294 -70.1370187 338.34094048 -64.8984375 340.73046875 C-64.15851563 341.18808594 -63.41859375 341.64570312 -62.65625 342.1171875 C-59.28063584 344.09187397 -55.8000681 345.62594989 -52.2109375 347.16796875 C-51.15616211 347.62538452 -51.15616211 347.62538452 -50.08007812 348.09204102 C-44.72510313 350.40324528 -39.33801387 352.62524809 -33.8984375 354.73046875 C-33.8984375 355.39046875 -33.8984375 356.05046875 -33.8984375 356.73046875 C-32.5784375 356.73046875 -31.2584375 356.73046875 -29.8984375 356.73046875 C-30.37392306 361.00983881 -32.96261601 362.79464726 -35.8984375 365.73046875 C-36.33542969 366.87322266 -36.33542969 366.87322266 -36.78125 368.0390625 C-38.15106901 371.33908103 -40.04284382 373.62182998 -42.3359375 376.35546875 C-43.11839844 377.29648437 -43.90085937 378.2375 -44.70703125 379.20703125 C-45.96128671 380.65132541 -47.2442846 382.07393617 -48.6015625 383.421875 C-50.05882497 384.77819564 -50.05882497 384.77819564 -51.2109375 387.04296875 C-53.4096194 390.54457326 -55.35742883 393.54370956 -58.8984375 395.73046875 C-63.0485325 396.46488424 -67.0755638 396.29830394 -71.2734375 396.10546875 C-72.39105469 396.07839844 -73.50867188 396.05132813 -74.66015625 396.0234375 C-77.40824502 395.95297369 -80.152332 395.85451104 -82.8984375 395.73046875 C-82.8984375 395.07046875 -82.8984375 394.41046875 -82.8984375 393.73046875 C-84.6309375 393.82328125 -84.6309375 393.82328125 -86.3984375 393.91796875 C-98.15141246 393.89948923 -109.85346969 390.45625413 -120.8984375 386.73046875 C-120.8984375 386.07046875 -120.8984375 385.41046875 -120.8984375 384.73046875 C-121.9709375 384.66859375 -123.0434375 384.60671875 -124.1484375 384.54296875 C-147.83518853 381.47323219 -171.8250855 361.20653863 -187.88745117 345.00219727 C-189.35176831 343.52702053 -190.82666806 342.06302022 -192.30273438 340.59960938 C-193.25064293 339.65038118 -194.19793196 338.70053383 -195.14453125 337.75 C-195.98685303 336.90542236 -196.8291748 336.06084473 -197.69702148 335.19067383 C-199.81984255 332.81830299 -201.29573083 330.46674916 -202.8984375 327.73046875 C-203.44854492 327.2415918 -203.99865234 326.75271484 -204.56542969 326.24902344 C-206.51462149 324.02851556 -206.25536527 322.34664651 -206.2265625 319.43359375 C-206.21882812 317.87125 -206.21882812 317.87125 -206.2109375 316.27734375 C-206.1903125 315.189375 -206.1696875 314.10140625 -206.1484375 312.98046875 C-206.14328125 311.90796875 -206.138125 310.83546875 -206.1328125 309.73046875 C-206.07923401 304.29225211 -205.72574971 299.11115577 -204.8984375 293.73046875 C-204.68916024 290.56631089 -204.58067029 287.39911139 -204.4609375 284.23046875 C-203.48578033 261.90515441 -203.48578033 261.90515441 -200.8984375 256.73046875 C-200.68887746 254.93156316 -200.53032656 253.12657439 -200.3984375 251.3203125 C-200.2746875 249.7125293 -200.2746875 249.7125293 -200.1484375 248.07226562 C-199.98148551 245.79884906 -199.81481981 243.52541145 -199.6484375 241.25195312 C-199.5659375 240.18138672 -199.4834375 239.11082031 -199.3984375 238.0078125 C-199.32625 237.02031006 -199.2540625 236.03280762 -199.1796875 235.01538086 C-198.8984375 232.73046875 -198.8984375 232.73046875 -197.8984375 231.73046875 C-197.61360598 230.25672658 -197.38407885 228.77218993 -197.1796875 227.28515625 C-196.98826172 225.91617188 -196.98826172 225.91617188 -196.79296875 224.51953125 C-196.66277344 223.55789063 -196.53257812 222.59625 -196.3984375 221.60546875 C-196.26824219 220.66703125 -196.13804687 219.72859375 -196.00390625 218.76171875 C-195.74969032 216.92828265 -195.49703969 215.09462871 -195.24609375 213.26074219 C-194.80935642 210.08212867 -194.35587801 206.90616149 -193.8984375 203.73046875 C-193.2384375 203.73046875 -192.5784375 203.73046875 -191.8984375 203.73046875 C-191.93324219 203.17359375 -191.96804687 202.61671875 -192.00390625 202.04296875 C-192.18394868 196.9674868 -191.61323523 193.19815208 -189.6328125 188.52734375 C-188.72540083 186.30708116 -188.26792023 184.09515825 -187.8984375 181.73046875 C-187.2384375 181.73046875 -186.5784375 181.73046875 -185.8984375 181.73046875 C-185.8984375 179.42046875 -185.8984375 177.11046875 -185.8984375 174.73046875 C-185.2384375 174.73046875 -184.5784375 174.73046875 -183.8984375 174.73046875 C-183.9396875 173.69921875 -183.9809375 172.66796875 -184.0234375 171.60546875 C-183.90268601 167.86217248 -183.24971732 165.19312328 -181.8984375 161.73046875 C-181.2384375 161.73046875 -180.5784375 161.73046875 -179.8984375 161.73046875 C-179.95257813 160.41755859 -179.95257813 160.41755859 -180.0078125 159.078125 C-179.89715402 155.69118516 -179.29471157 153.33785742 -178.1484375 150.16796875 C-176.60262791 145.77634008 -175.16722827 141.37959189 -173.8359375 136.91796875 C-172.79150176 133.48157038 -171.73450107 130.13735526 -170.2734375 126.85546875 C-168.82503616 123.76215441 -168.82503616 123.76215441 -167.984375 120.47265625 C-166.91057807 116.77230569 -165.60311699 113.29677975 -164.1484375 109.73046875 C-163.61448504 108.41410237 -163.08063386 107.0976949 -162.546875 105.78125 C-162.27456055 105.11303223 -162.00224609 104.44481445 -161.72167969 103.75634766 C-160.39134361 100.48258467 -159.08323484 97.19998968 -157.7734375 93.91796875 C-157.27094398 92.66141408 -156.76834306 91.40490235 -156.265625 90.1484375 C-155.81445312 89.02050781 -155.36328125 87.89257812 -154.8984375 86.73046875 C-152.8984375 81.73046875 -152.8984375 81.73046875 -151.96484375 79.421875 C-151.09574725 77.22844098 -150.25568817 75.0286553 -149.42578125 72.8203125 C-148.89583333 71.43619792 -148.36588542 70.05208333 -147.8359375 68.66796875 C-147.59037109 67.99958984 -147.34480469 67.33121094 -147.09179688 66.64257812 C-146.44529402 64.9699903 -145.67947925 63.34462171 -144.8984375 61.73046875 C-143.9084375 61.40046875 -142.9184375 61.07046875 -141.8984375 60.73046875 C-141.8159375 59.86421875 -141.7334375 58.99796875 -141.6484375 58.10546875 C-140.03712938 50.85458223 -134.50585953 45.35186098 -128.8984375 40.73046875 C-126.72491656 39.53992755 -124.56076721 38.62005368 -122.25390625 37.71875 C-117.21756364 35.60565766 -112.60546959 32.51035666 -108.05078125 29.515625 C-96.00115812 21.6502666 -80.39133275 12.56659732 -65.8984375 11.73046875 C-65.5684375 10.74046875 -65.2384375 9.75046875 -64.8984375 8.73046875 C-59.60689074 6.02101155 -53.72778126 5.3550413 -47.8984375 4.73046875 C-47.5684375 4.40046875 -47.2384375 4.07046875 -46.8984375 3.73046875 C-43.26293414 3.24974103 -39.62766599 2.85756184 -35.98046875 2.48046875 C-32.12001229 2.40296038 -32.12001229 2.40296038 -28.8984375 0.73046875 C-6.29362608 -4.20870057 -6.29362608 -4.20870057 0 0 Z " fill="#F3F3F4" transform="translate(386.8984375,260.26953125)"/>
<path d="M0 0 C1.12470703 -0.03738281 2.24941406 -0.07476562 3.40820312 -0.11328125 C10.67160375 -0.19014263 14.38152061 0.48563467 19.8125 5.375 C21.47198148 6.38687895 23.13830562 7.3876546 24.8125 8.375 C32.85281256 13.2691033 37.82609876 18.56218816 41.7578125 27.09375 C42.80795117 29.48588977 42.80795117 29.48588977 44.4375 32 C50.89789292 43.1588605 49.68811041 55.01844741 46.80078125 67.23828125 C45.45268765 71.5170131 43.46962255 74.80284187 40.8125 78.375 C40.35875 79.179375 39.905 79.98375 39.4375 80.8125 C32.09365611 92.3931769 24.35048315 100.16024863 10.8125 103.375 C7.74458479 103.66945574 4.70556665 103.70858915 1.625 103.6875 C0.78928467 103.68331055 -0.04643066 103.67912109 -0.9074707 103.67480469 C-7.66001457 103.55230365 -13.79947587 102.65786756 -20.1875 100.375 C-20.88617187 100.14296875 -21.58484375 99.9109375 -22.3046875 99.671875 C-33.67183696 95.01545233 -40.79740464 83.58270124 -45.8125 73 C-46.12445313 72.36578125 -46.43640625 71.7315625 -46.7578125 71.078125 C-51.75926093 60.51472099 -51.93100732 46.42912633 -48.1875 35.375 C-44.28794894 24.70254448 -38.12325117 16.34924481 -29.1875 9.375 C-28.8575 8.715 -28.5275 8.055 -28.1875 7.375 C-24.45687592 4.69361394 -20.51291813 3.37924836 -16.17578125 2.0234375 C-10.63390144 0.21606609 -5.93113013 0.0735126 0 0 Z " fill="#6775BF" transform="translate(546.1875,435.625)"/>
<path d="M0 0 C0.97646484 -0.01160156 1.95292969 -0.02320313 2.95898438 -0.03515625 C9.42353056 -0.00921158 17.07667651 0.18927824 22.03540039 4.88964844 C22.7294397 5.62489746 22.7294397 5.62489746 23.4375 6.375 C24.2315625 6.84679687 25.025625 7.31859375 25.84375 7.8046875 C33.56371232 12.47852011 38.5196491 19.43046902 42.4375 27.375 C42.97375 28.261875 43.51 29.14875 44.0625 30.0625 C44.51625 30.825625 44.97 31.58875 45.4375 32.375 C45.95441406 33.22320312 46.47132813 34.07140625 47.00390625 34.9453125 C48.82913199 39.31192885 48.85024789 42.88565733 48.75 47.5625 C48.73743164 48.81800659 48.73743164 48.81800659 48.72460938 50.09887695 C48.60416453 56.33009082 47.96220297 62.31702838 46.4375 68.375 C45.7775 68.375 45.1175 68.375 44.4375 68.375 C44.5303125 69.48875 44.5303125 69.48875 44.625 70.625 C44.4007753 73.91362891 43.47962931 74.86161008 41.4375 77.375 C41.086875 78.261875 40.73625 79.14875 40.375 80.0625 C39.4375 82.375 39.4375 82.375 37.4375 83.375 C37.025 84.138125 36.6125 84.90125 36.1875 85.6875 C34.05955837 88.95541036 31.71187379 90.3034574 28.4375 92.375 C27.81875 93.035 27.2 93.695 26.5625 94.375 C23.57277603 97.18885786 20.16724181 98.72196732 16.4375 100.375 C15.68033691 100.71724609 14.92317383 101.05949219 14.14306641 101.41210938 C9.45269023 103.08137879 4.68227823 102.74398869 -0.25 102.75 C-1.28833984 102.77449219 -2.32667969 102.79898438 -3.39648438 102.82421875 C-10.64410844 102.85148254 -16.04994108 101.48356739 -22.5625 98.375 C-23.95791079 97.79065662 -25.35367473 97.2071548 -26.75 96.625 C-31.42271945 94.24134554 -34.40326697 90.47000586 -37.5625 86.375 C-38.40361328 85.323125 -38.40361328 85.323125 -39.26171875 84.25 C-40.5625 82.375 -40.5625 82.375 -40.5625 80.375 C-41.2225 80.375 -41.8825 80.375 -42.5625 80.375 C-47.56015167 70.27770377 -50.26308155 61.22006363 -50.3125 49.875 C-50.32732422 48.88564453 -50.34214844 47.89628906 -50.35742188 46.87695312 C-50.2256846 40.54931445 -48.8803376 36.03599506 -45.77026367 30.52441406 C-44.67672536 28.57828281 -43.89010676 26.71490914 -43.125 24.625 C-41.18280913 20.58524299 -38.79066107 18.46280624 -35.5625 15.375 C-35.2325 14.385 -34.9025 13.395 -34.5625 12.375 C-33.9025 12.375 -33.2425 12.375 -32.5625 12.375 C-32.5625 11.715 -32.5625 11.055 -32.5625 10.375 C-30.61267465 8.96931196 -28.60299422 7.6454964 -26.5625 6.375 C-25.82 5.859375 -25.0775 5.34375 -24.3125 4.8125 C-16.48910855 0.72299992 -8.71214211 -0.10392217 0 0 Z " fill="#6B78BF" transform="translate(372.5625,436.625)"/>
<path d="M0 0 C1.19794189 -0.00315216 2.39588379 -0.00630432 3.63012695 -0.009552 C4.93425537 -0.00752777 6.23838379 -0.00550354 7.58203125 -0.00341797 C8.9234214 -0.00409107 10.26481144 -0.00506115 11.60620117 -0.00631714 C14.42074746 -0.00779382 17.23526207 -0.00564051 20.04980469 -0.00097656 C23.66493756 0.00472073 27.2799962 0.00144156 30.89512634 -0.00454903 C33.66598067 -0.00815544 36.43681727 -0.00701569 39.20767212 -0.00442123 C41.19142708 -0.0034258 43.17518272 -0.00647288 45.15893555 -0.009552 C46.95584839 -0.00482376 46.95584839 -0.00482376 48.7890625 0 C49.84971924 0.00079559 50.91037598 0.00159119 52.00317383 0.00241089 C54.39453125 0.12939453 54.39453125 0.12939453 55.39453125 1.12939453 C57.55434803 1.33522662 59.72024921 1.47768319 61.88671875 1.59423828 C63.24609928 1.67291875 64.60547409 1.75169823 65.96484375 1.83056641 C68.10144827 1.9489695 70.23814169 2.06522387 72.375 2.17895508 C95.70526092 3.4401242 95.70526092 3.4401242 98.39453125 6.12939453 C99.89116471 6.28974812 101.39248364 6.40703959 102.89453125 6.50439453 C106.38367397 6.81486909 109.36633912 7.34065349 112.64453125 8.56689453 C116.57814074 10.0157507 120.3621443 10.60642514 124.51953125 11.12939453 C129.68396353 11.79701879 133.65266296 12.93408514 138.39453125 15.12939453 C141.42500727 15.95218506 144.46712075 16.67984692 147.52734375 17.38330078 C150.27811887 18.09910194 152.76869358 19.05212779 155.39453125 20.12939453 C157.01406847 20.62671223 158.63927091 21.10594233 160.26953125 21.56689453 C163.77218514 22.59557409 167.03329399 23.80322718 170.359375 25.32080078 C173.10983656 26.41359453 175.9264355 27.18408069 178.76953125 28.00439453 C183.68074358 29.47327311 187.77416832 31.27805684 192.1484375 33.91064453 C194.68703131 35.28810761 197.22397908 36.19963193 199.95703125 37.12939453 C204.18193123 38.58847927 207.60266551 40.36619761 211.30078125 42.84423828 C213.75007803 44.34763127 216.26283028 45.47621787 218.89453125 46.62939453 C223.02193393 48.44545171 226.74171562 50.4861705 230.5078125 52.95361328 C232.38283404 54.12210497 234.2705675 55.06675684 236.26953125 56.00439453 C240.49894929 58.04819615 244.20467826 60.69281296 248 63.44580078 C250.40240546 65.13493088 252.86690995 66.63617931 255.39453125 68.12939453 C256.28140625 68.72751953 257.16828125 69.32564453 258.08203125 69.94189453 C259.9052291 71.14589311 261.74618548 72.32807613 263.6484375 73.40283203 C269.47271151 76.7023425 274.2331104 80.44929094 279.0703125 85.07861328 C281.38680767 87.12257961 283.73116947 88.58134338 286.39453125 90.12939453 C287.72786458 91.46272786 289.06119792 92.7960612 290.39453125 94.12939453 C291.15765625 94.56251953 291.92078125 94.99564453 292.70703125 95.44189453 C295.7885456 97.37679889 297.98823694 99.65803656 300.453125 102.31298828 C302.39795943 104.24937082 302.39795943 104.24937082 305.03686523 105.78051758 C309.1929733 108.52170687 312.56099684 112.00936015 316.05859375 115.52783203 C316.77308685 116.24041168 317.48757996 116.95299133 318.22372437 117.68716431 C319.72712944 119.1892135 321.2280323 120.69377091 322.7265625 122.20068359 C325.01212897 124.49695757 327.30816498 126.78236994 329.60546875 129.06689453 C331.06965208 130.53239956 332.53321483 131.99852492 333.99609375 133.46533203 C334.678461 134.14365082 335.36082825 134.8219696 336.06387329 135.52084351 C339.69139692 139.1840434 342.66473623 142.75865077 345.39453125 147.12939453 C346.52100287 148.33491679 347.68470052 149.50755149 348.89453125 150.62939453 C351.91056127 153.54231242 354.13744658 156.58254719 356.39453125 160.12939453 C356.91015625 160.64501953 357.42578125 161.16064453 357.95703125 161.69189453 C359.39453125 163.12939453 359.39453125 163.12939453 360.7421875 165.45361328 C362.37664405 168.10042826 364.12990005 170.13153296 366.26953125 172.37939453 C369.5774955 176.01936249 371.93125985 179.58497179 374.1796875 183.93798828 C375.83852773 186.93030137 377.89448759 189.52968906 379.98828125 192.22705078 C381.29814125 193.99900028 382.39286368 195.76523632 383.45703125 197.69189453 C384.87439212 200.20656704 386.24579476 202.34265291 387.95703125 204.62939453 C389.66329897 206.95612324 390.67597603 208.79017792 391.83203125 211.50439453 C393.14628076 214.55345339 394.44705364 216.76051387 396.33203125 219.44189453 C399.00651314 223.3254788 400.69820996 227.13212815 402.3359375 231.53564453 C403.4768512 234.33109359 404.8478765 236.8759678 406.33203125 239.50439453 C409.04740394 244.33172376 411.19782116 249.24981073 413.21875 254.40283203 C414.40230704 257.14742609 415.84050751 259.5813165 417.39453125 262.12939453 C418.67442244 266.43448308 418.47001541 270.67582881 418.39453125 275.12939453 C416.06813555 272.31458427 414.90500474 270.03478885 414.01953125 266.50439453 C412.71648222 261.85844484 410.87038435 257.81500359 408.640625 253.54736328 C407.50903753 251.35158697 406.49624619 249.14721763 405.51953125 246.87939453 C400.83775411 236.21848031 395.33371144 226.13148184 389.39453125 216.12939453 C388.40718004 214.42577846 387.42717855 212.71786596 386.45703125 211.00439453 C386.05613281 210.30056641 385.65523437 209.59673828 385.2421875 208.87158203 C384.39453125 207.12939453 384.39453125 207.12939453 384.39453125 205.12939453 C383.73453125 205.12939453 383.07453125 205.12939453 382.39453125 205.12939453 C381.23817812 203.34121958 380.17006239 201.49567642 379.14453125 199.62939453 C376.21492513 194.46164212 373.06320957 189.78617022 369.39453125 185.12939453 C368.39118118 183.79858034 367.39121451 182.46520898 366.39453125 181.12939453 C365.89308594 180.46166016 365.39164063 179.79392578 364.875 179.10595703 C363.9367247 177.85327286 363.0014509 176.59833023 362.0703125 175.34033203 C358.73635969 170.85048154 355.32604784 166.41989373 351.89453125 162.00439453 C351.21837769 161.12533447 351.21837769 161.12533447 350.52856445 160.22851562 C348.18688092 157.23051834 345.78653531 154.47215917 343.05078125 151.82470703 C340.39453125 149.12939453 340.39453125 149.12939453 340.39453125 147.12939453 C339.73453125 147.12939453 339.07453125 147.12939453 338.39453125 147.12939453 C337.21671513 145.75632547 336.10636493 144.32554874 335.01953125 142.87939453 C330.1327739 136.76095038 324.73394341 131.23380646 319.20703125 125.69189453 C318.33965332 124.8156543 317.47227539 123.93941406 316.57861328 123.03662109 C312.38401096 118.86056826 308.39640781 115.27216653 303.39453125 112.12939453 C301.95905407 110.7743644 300.55901936 109.38023717 299.20703125 107.94189453 C296.28488097 104.82298949 296.28488097 104.82298949 292.39453125 103.12939453 C291.06119792 101.7960612 289.72786458 100.46272786 288.39453125 99.12939453 C286.400813 97.78668632 284.40107505 96.45285959 282.39453125 95.12939453 C281.94464844 94.67693359 281.49476563 94.22447266 281.03125 93.75830078 C270.57001575 83.34700082 255.68277235 74.10812227 242.27734375 68.12939453 C240.39453125 67.12939453 240.39453125 67.12939453 238.9375 65.62548828 C236.98239252 63.72977647 235.13759783 63.10655968 232.58203125 62.19189453 C228.36503194 60.59361491 225.06074006 58.72256662 221.39453125 56.12939453 C220.40453125 55.79939453 219.41453125 55.46939453 218.39453125 55.12939453 C218.39453125 54.46939453 218.39453125 53.80939453 218.39453125 53.12939453 C217.54375 53.03271484 216.69296875 52.93603516 215.81640625 52.83642578 C211.9720525 52.04210155 209.11152259 50.6484386 205.64453125 48.81689453 C200.5972505 46.18747282 195.54430016 43.88485771 190.1875 41.95361328 C188.39453125 41.12939453 188.39453125 41.12939453 187.39453125 39.12939453 C184.8223364 38.14478384 184.8223364 38.14478384 181.6796875 37.28955078 C176.96702237 35.90090004 172.29306503 34.45480673 167.640625 32.87548828 C166.51849609 32.49585938 165.39636719 32.11623047 164.24023438 31.72509766 C161.96340591 30.95136741 159.68736515 30.17531544 157.41210938 29.39697266 C151.03282791 27.24364418 144.67901933 25.38743965 138.12963867 23.82836914 C135.72908829 23.21489277 133.46236542 22.48327119 131.13671875 21.63720703 C124.46740405 19.32987082 117.44357985 18.28088619 110.51953125 17.00439453 C108.39928226 16.60877535 106.27939051 16.21136311 104.15988159 15.8117981 C102.25323865 15.4530653 100.34563749 15.09943643 98.43798828 14.74609375 C95.39453125 14.12939453 95.39453125 14.12939453 92.39453125 13.12939453 C89.30228849 12.82398784 86.20941406 12.62107143 83.109375 12.41064453 C80.39453125 12.12939453 80.39453125 12.12939453 78.39453125 11.12939453 C75.9810586 10.92153564 73.56329562 10.76218944 71.14453125 10.62939453 C63.96138682 10.23190828 63.96138682 10.23190828 60.65405273 9.63378906 C56.91474326 9.05514976 53.22029641 8.88299272 49.4453125 8.77783203 C48.68340607 8.75418076 47.92149963 8.73052948 47.13650513 8.7061615 C44.66014369 8.63255452 42.18368874 8.56721727 39.70703125 8.50439453 C38.8588382 8.48226898 38.01064514 8.46014343 37.13674927 8.43734741 C2.35301123 5.69362814 2.35301123 5.69362814 -30.60546875 12.12939453 C-33.42545641 12.4105009 -36.24580987 12.57557352 -39.07421875 12.75048828 C-43.65765089 13.24229461 -48.09628823 14.18855703 -52.60546875 15.12939453 C-54.44629392 15.49040849 -56.28744889 15.84974424 -58.12890625 16.20751953 C-70.50782483 18.66606505 -82.53427624 21.65767061 -94.55883789 25.48803711 C-97.55772977 26.42780676 -100.58033327 27.27857518 -103.60546875 28.12939453 C-109.70764752 29.88733744 -115.69679112 31.79295665 -121.60546875 34.12939453 C-123.34570312 34.81388672 -123.34570312 34.81388672 -125.12109375 35.51220703 C-131.26412374 37.94182036 -137.39043956 40.38610071 -143.3828125 43.17236328 C-145.3276954 44.00979089 -147.31606645 44.74470446 -149.30859375 45.46142578 C-153.87799901 47.16195199 -158.12286522 49.33345495 -162.41796875 51.62939453 C-163.23185059 52.06082764 -164.04573242 52.49226074 -164.88427734 52.93676758 C-173.17918154 57.37063494 -181.29751591 62.09807364 -189.40698242 66.85986328 C-191.70485656 68.18678672 -194.0247521 69.46726387 -196.3515625 70.74267578 C-199.54620225 72.50851706 -202.57787661 74.36786065 -205.54296875 76.50439453 C-206.37054688 77.09607422 -207.198125 77.68775391 -208.05078125 78.29736328 C-208.89382812 78.90193359 -209.736875 79.50650391 -210.60546875 80.12939453 C-212.37529203 81.36001509 -214.14610742 82.5892102 -215.91796875 83.81689453 C-218.48821362 85.61204993 -220.96845246 87.4197815 -223.41796875 89.37939453 C-225.60546875 91.12939453 -225.60546875 91.12939453 -228.16796875 92.62939453 C-230.66964694 94.03915903 -230.66964694 94.03915903 -232.60546875 96.12939453 C-234.60546875 98.12939453 -234.60546875 98.12939453 -236.85449219 99.44750977 C-249.9807229 107.47258994 -260.85893578 120.0409657 -271.62939453 130.83764648 C-274.3558131 133.56723928 -277.09535628 136.283171 -279.8359375 138.99853516 C-288.01489035 147.14892 -295.97439379 155.19420583 -302.74536133 164.5690918 C-305.01249921 167.68964238 -307.51647961 170.51967654 -310.1328125 173.34814453 C-311.8931779 175.47739286 -313.19753181 177.75327929 -314.60546875 180.12939453 C-315.87815859 181.93459058 -317.17077594 183.72586228 -318.48046875 185.50439453 C-319.18558594 186.46861328 -319.89070313 187.43283203 -320.6171875 188.42626953 C-321.76121442 189.98160672 -322.90800384 191.53493755 -324.0625 193.08251953 C-326.22060192 196.0147977 -328.1171786 198.97516403 -329.85546875 202.17626953 C-332.75485407 207.44292522 -335.83538625 212.59357972 -338.91796875 217.75439453 C-348.76731503 234.17512772 -348.76731503 234.17512772 -356.61328125 251.60205078 C-359.01915265 257.7303925 -361.96597217 263.65300379 -364.7734375 269.60595703 C-366.81636017 274.03620312 -368.35103118 278.42114669 -369.6875 283.10986328 C-370.89929852 287.09590694 -372.27740456 291.01520215 -373.66796875 294.94189453 C-374.0544458 296.03630859 -374.0544458 296.03630859 -374.44873047 297.15283203 C-375.47581324 300.04062981 -376.5104757 302.90182126 -377.69140625 305.73095703 C-378.81302749 308.67401448 -379.48759927 311.61776438 -380.16796875 314.69189453 C-381.5958936 321.09166136 -381.5958936 321.09166136 -382.1328125 323.20751953 C-382.9273658 326.43826518 -383.49277032 329.71554276 -384.10546875 332.98486328 C-384.60546875 335.12939453 -384.60546875 335.12939453 -385.60546875 336.12939453 C-385.8115096 337.45721332 -385.97176465 338.79235348 -386.10546875 340.12939453 C-386.49435764 344.01828342 -386.49435764 344.01828342 -387.60546875 345.12939453 C-387.68796875 346.24314453 -387.77046875 347.35689453 -387.85546875 348.50439453 C-388.60546875 352.12939453 -388.60546875 352.12939453 -391.16796875 354.06689453 C-391.97234375 354.41751953 -392.77671875 354.76814453 -393.60546875 355.12939453 C-393.64818975 353.46327548 -393.64610707 351.79556568 -393.60546875 350.12939453 C-393.27546875 349.79939453 -392.94546875 349.46939453 -392.60546875 349.12939453 C-392.44511516 347.63276107 -392.32782369 346.13144214 -392.23046875 344.62939453 C-391.91999419 341.14025181 -391.39420979 338.15758667 -390.16796875 334.87939453 C-388.71911258 330.94578504 -388.12843814 327.16178148 -387.60546875 323.00439453 C-386.93784449 317.83996225 -385.80077814 313.87126282 -383.60546875 309.12939453 C-382.78267822 306.09891851 -382.05501636 303.05680504 -381.3515625 299.99658203 C-380.63576134 297.24580691 -379.68273549 294.75523221 -378.60546875 292.12939453 C-378.10815105 290.50985731 -377.62892095 288.88465487 -377.16796875 287.25439453 C-376.13928919 283.75174064 -374.93163611 280.49063179 -373.4140625 277.16455078 C-372.32126875 274.41408922 -371.55078259 271.59749029 -370.73046875 268.75439453 C-369.26159018 263.8431822 -367.45680644 259.74975746 -364.82421875 255.37548828 C-363.44675567 252.83689447 -362.53523135 250.2999467 -361.60546875 247.56689453 C-360.14638401 243.34199455 -358.36866567 239.92126027 -355.890625 236.22314453 C-354.38723201 233.77384775 -353.25864541 231.26109551 -352.10546875 228.62939453 C-350.28941157 224.50199185 -348.24869278 220.78221016 -345.78125 217.01611328 C-344.61275831 215.14109174 -343.66810644 213.25335828 -342.73046875 211.25439453 C-340.68666713 207.02497649 -338.04205032 203.31924753 -335.2890625 199.52392578 C-333.5999324 197.12152033 -332.09868397 194.65701583 -330.60546875 192.12939453 C-329.70828125 190.79908203 -329.70828125 190.79908203 -328.79296875 189.44189453 C-327.58897017 187.61869668 -326.40678716 185.7777403 -325.33203125 183.87548828 C-322.03252078 178.05121427 -318.28557234 173.29081538 -313.65625 168.45361328 C-311.60970381 166.13419426 -310.13299114 163.81035219 -308.60546875 161.12939453 C-305.68193303 157.2661509 -302.46163454 153.66944721 -299.26171875 150.03564453 C-298.00995112 148.59493084 -296.79773294 147.11972477 -295.60546875 145.62939453 C-288.96720575 137.33156578 -281.52220662 129.85989372 -274.0168457 122.35546875 C-272.03892986 120.37535115 -270.06917632 118.38734377 -268.09960938 116.39892578 C-266.82991703 115.12630136 -265.55975101 113.8541493 -264.2890625 112.58251953 C-263.70764999 111.99392151 -263.12623749 111.40532349 -262.52720642 110.79888916 C-259.1024824 107.39306303 -255.68594506 104.71055189 -251.60546875 102.12939453 C-250.37914598 100.98203017 -249.18559816 99.7976303 -248.04296875 98.56689453 C-245.41915698 95.85061363 -242.90192123 94.00035405 -239.60546875 92.12939453 C-238.94546875 91.46939453 -238.28546875 90.80939453 -237.60546875 90.12939453 C-235.60546875 88.12939453 -235.60546875 88.12939453 -233.24609375 86.74658203 C-230.60645622 85.12999929 -228.59239339 83.38361539 -226.35546875 81.25439453 C-222.71550079 77.94643028 -219.14989149 75.59266593 -214.796875 73.34423828 C-211.80456191 71.68539805 -209.20517422 69.62943819 -206.5078125 67.53564453 C-204.735863 66.22578453 -202.96962697 65.1310621 -201.04296875 64.06689453 C-198.52829624 62.64953366 -196.39221037 61.27813103 -194.10546875 59.56689453 C-191.77874004 57.86062681 -189.94468536 56.84794975 -187.23046875 55.69189453 C-184.18140989 54.37764502 -181.97434941 53.07687215 -179.29296875 51.19189453 C-175.40938449 48.51741264 -171.60273513 46.82571582 -167.19921875 45.18798828 C-164.4037697 44.04707459 -161.85889548 42.67604928 -159.23046875 41.19189453 C-154.40313952 38.47652184 -149.48505255 36.32610462 -144.33203125 34.30517578 C-141.58455225 33.19954955 -141.58455225 33.19954955 -139.15234375 31.60986328 C-136.23973972 29.91680051 -133.46717059 29.05196988 -130.23046875 28.12939453 C-124.98499977 26.59055124 -124.98499977 26.59055124 -119.91796875 24.56689453 C-115.58341677 22.68586254 -111.14166947 21.4312638 -106.60546875 20.12939453 C-99.59428437 18.09901565 -99.59428437 18.09901565 -92.73046875 15.62939453 C-84.06816933 12.31632384 -74.87976038 10.71541657 -65.7734375 9.13134766 C-62.40149736 8.77069697 -62.40149736 8.77069697 -59.60546875 7.12939453 C-57.02649181 6.80702241 -54.44615054 6.61672149 -51.85546875 6.41064453 C-49.63881523 6.36738788 -49.63881523 6.36738788 -48.60546875 5.12939453 C-39.73984098 2.85097066 -30.57590196 2.55098589 -21.48046875 2.06689453 C-19.35323675 1.95120043 -17.22619565 1.83349136 -15.09939575 1.71009827 C-13.19659365 1.59996474 -11.29337104 1.49716854 -9.39013672 1.39477539 C-5.88103426 1.0603554 -3.84851006 0.00288675 0 0 Z " fill="#94A3D9" transform="translate(435.60546875,36.87060546875)"/>
<path d="M0 0 C0.9590625 -0.03738281 1.918125 -0.07476562 2.90625 -0.11328125 C10.00708355 -0.20228891 10.00708355 -0.20228891 13.1796875 2.76171875 C13.65664063 3.62410156 14.13359375 4.48648437 14.625 5.375 C15.2025 6.096875 15.78 6.81875 16.375 7.5625 C17.625 9.375 17.625 9.375 17.625 11.375 C18.19734375 11.60960937 18.7696875 11.84421875 19.359375 12.0859375 C22.14184301 13.66906585 23.79570214 15.5741525 25.875 18 C26.58140625 18.81726563 27.2878125 19.63453125 28.015625 20.4765625 C28.81226563 21.41628906 28.81226563 21.41628906 29.625 22.375 C29.13 22.849375 28.635 23.32375 28.125 23.8125 C26.50957803 25.13423698 26.50957803 25.13423698 26.625 26.375 C25.92632812 26.43558594 25.22765625 26.49617188 24.5078125 26.55859375 C23.59773437 26.64238281 22.68765625 26.72617187 21.75 26.8125 C20.84507812 26.89371094 19.94015625 26.97492188 19.0078125 27.05859375 C16.61389139 27.24489285 16.61389139 27.24489285 14.625 28.375 C13.27492606 28.55481957 11.91943896 28.69523367 10.5625 28.8125 C6.71779786 29.20792032 3.0719516 29.89035675 -0.68359375 30.78515625 C-3.42762135 31.3865324 -6.18283797 31.86163172 -8.95166016 32.33300781 C-16.64953931 33.66522719 -23.81283138 35.65938175 -31.16796875 38.2890625 C-36.40032265 40.06079744 -40.84861982 40.4833604 -46.375 40.375 C-46.375 41.035 -46.375 41.695 -46.375 42.375 C-47.08527344 42.49617188 -47.79554688 42.61734375 -48.52734375 42.7421875 C-49.44644531 42.90976562 -50.36554688 43.07734375 -51.3125 43.25 C-52.22902344 43.41242188 -53.14554687 43.57484375 -54.08984375 43.7421875 C-54.84394531 43.95101562 -55.59804688 44.15984375 -56.375 44.375 C-56.87 45.365 -56.87 45.365 -57.375 46.375 C-59.30859375 46.83203125 -59.30859375 46.83203125 -61.8125 47.1875 C-66.69292414 48.06916979 -70.4980482 49.74935377 -74.8515625 52.0703125 C-79.46953846 54.45793474 -84.47085278 56.82474053 -89.6015625 57.796875 C-90.18679688 57.98765625 -90.77203125 58.1784375 -91.375 58.375 C-91.705 59.365 -92.035 60.355 -92.375 61.375 C-96.35063044 63.40032117 -98.8800702 64.375 -103.375 64.375 C-103.375 65.035 -103.375 65.695 -103.375 66.375 C-106.345 66.87 -106.345 66.87 -109.375 67.375 C-105.39578105 63.14707987 -101.05492506 59.79428104 -96.375 56.375 C-94.97846267 55.3134255 -93.5826135 54.250945 -92.1875 53.1875 C-84.60920096 47.54440013 -84.60920096 47.54440013 -80.1875 46.9375 C-78.7953125 46.6590625 -78.7953125 46.6590625 -77.375 46.375 C-77.14683594 45.78976562 -76.91867187 45.20453125 -76.68359375 44.6015625 C-74.60334558 41.06203577 -71.2457912 39.91678469 -67.625 38.1875 C-66.92117188 37.83236328 -66.21734375 37.47722656 -65.4921875 37.11132812 C-61.45686858 35.13492192 -57.89915857 33.85160161 -53.375 33.375 C-53.375 32.715 -53.375 32.055 -53.375 31.375 C-52.82038086 31.1483667 -52.26576172 30.9217334 -51.69433594 30.68823242 C-49.16873589 29.65227163 -46.64687793 28.60748715 -44.125 27.5625 C-43.25230469 27.20607422 -42.37960937 26.84964844 -41.48046875 26.48242188 C-40.63613281 26.13115234 -39.79179687 25.77988281 -38.921875 25.41796875 C-38.14682617 25.09852295 -37.37177734 24.77907715 -36.57324219 24.44995117 C-34.26693964 23.32215796 -32.41878191 21.91724034 -30.375 20.375 C-27.82748947 19.73107949 -25.31393868 19.37520769 -22.71484375 19 C-20.31918338 18.57163789 -20.31918338 18.57163789 -18.89453125 16.875 C-16.78409178 14.79168701 -15.03222622 14.76479569 -12.125 14.375 C-7.36462596 13.62336199 -3.73027075 12.38512496 0.625 10.375 C4.76505136 9.01877628 8.26149456 8.11054513 12.625 8.375 C11.53715032 5.12516865 11.53715032 5.12516865 9.625 2.375 C0.53800211 1.81034551 -8.47774166 2.43094196 -17.375 4.375 C-17.705 4.705 -18.035 5.035 -18.375 5.375 C-21.23377909 5.61201239 -24.07383297 5.79719182 -26.9375 5.9375 C-27.74380859 5.98068359 -28.55011719 6.02386719 -29.38085938 6.06835938 C-31.37868805 6.17475262 -33.3768207 6.27540888 -35.375 6.375 C-35.375 6.045 -35.375 5.715 -35.375 5.375 C-34.53195312 5.24222656 -33.68890625 5.10945313 -32.8203125 4.97265625 C-31.72460938 4.79605469 -30.62890625 4.61945313 -29.5 4.4375 C-27.86417969 4.17646484 -27.86417969 4.17646484 -26.1953125 3.91015625 C-23.43678454 3.51948841 -23.43678454 3.51948841 -21.375 2.375 C-19.07690464 2.06630062 -16.77779871 1.86616352 -14.46875 1.65625 C-2.40104773 0.03521537 -2.40104773 0.03521537 0 0 Z " fill="#7884C4" transform="translate(375.375,257.625)"/>
<path d="M0 0 C0.66 0 1.32 0 2 0 C2.52120439 9.03420938 0.16723737 17.33475 -3.18359375 25.66796875 C-4.75292192 30.15069085 -5.79749581 34.80654555 -6.9375 39.4140625 C-7.96608739 42.88554495 -9.34340869 45.79283923 -11 49 C-11.52387916 50.56910668 -12.00609356 52.15299229 -12.4375 53.75 C-14.58445462 61.19724883 -17.49916367 68.16043557 -21.05078125 75.0390625 C-22.6158601 78.27227066 -23.79251347 81.6190377 -25 85 C-25.99 85 -26.98 85 -28 85 C-29.68798827 86.43750191 -29.68798827 86.43750191 -31 88 C-30.35287752 85.08713073 -29.42376546 82.52590309 -28.1796875 79.81640625 C-20.02680069 61.82344821 -12.90951145 43.66146955 -7.39453125 24.69140625 C-6.24646484 20.76189545 -4.98682387 16.87992538 -3.66723633 13.00488281 C-2.24390048 8.72810492 -1.05172266 4.38217775 0 0 Z " fill="#4F5EB5" transform="translate(870,553)"/>
<path d="M0 0 C0.33 0.66 0.66 1.32 1 2 C0.36355464 3.67843961 -0.30975928 5.34295746 -1 7 C-1.55729006 9.17849751 -2.07658526 11.36697945 -2.5625 13.5625 C-3.99042485 19.96226683 -3.99042485 19.96226683 -4.52734375 22.078125 C-5.32189705 25.30887065 -5.88730157 28.58614823 -6.5 31.85546875 C-7 34 -7 34 -8 35 C-8.20604085 36.32781878 -8.3662959 37.66295895 -8.5 39 C-8.88888889 42.88888889 -8.88888889 42.88888889 -10 44 C-10.0825 45.11375 -10.165 46.2275 -10.25 47.375 C-11 51 -11 51 -13.5625 52.9375 C-14.366875 53.288125 -15.17125 53.63875 -16 54 C-16.042721 52.33388095 -16.04063832 50.66617115 -16 49 C-15.505 48.505 -15.505 48.505 -15 48 C-14.83964641 46.50336654 -14.72235494 45.00204761 -14.625 43.5 C-14.31452544 40.01085728 -13.78874104 37.02819213 -12.5625 33.75 C-11.11364383 29.81639051 -10.52296939 26.03238695 -10 21.875 C-9.12019637 15.13468626 -8.1804592 9.74875427 -3 5 C-1.96642853 3.35394174 -0.95939668 1.69036558 0 0 Z " fill="#93A0D7" transform="translate(58,338)"/>
<path d="M0 0 C1.19538391 0.06521347 1.19538391 0.06521347 2.41491699 0.13174438 C4.65468525 0.25679976 6.89377174 0.38992946 9.1328125 0.52734375 C10.4130127 0.605896 11.69321289 0.68444824 13.01220703 0.76538086 C15.875 1.0625 15.875 1.0625 16.875 2.0625 C18.53704487 2.27025561 20.20529491 2.42968255 21.875 2.5625 C26.76388889 2.95138889 26.76388889 2.95138889 27.875 4.0625 C29.38969448 4.29442865 30.91254562 4.47465238 32.4375 4.625 C33.67693359 4.75068359 33.67693359 4.75068359 34.94140625 4.87890625 C35.57949219 4.93949219 36.21757813 5.00007813 36.875 5.0625 C36.875 5.7225 36.875 6.3825 36.875 7.0625 C39.185 7.3925 41.495 7.7225 43.875 8.0625 C40.16023623 9.30075459 37.68671187 8.76837257 33.875 8.0625 C33.38 7.5675 33.38 7.5675 32.875 7.0625 C30.99906768 6.7041399 29.11224943 6.40245562 27.22265625 6.125 C26.05283203 5.95226562 24.88300781 5.77953125 23.67773438 5.6015625 C22.44345703 5.42367188 21.20917969 5.24578125 19.9375 5.0625 C18.73802734 4.88460938 17.53855469 4.70671875 16.30273438 4.5234375 C12.82843982 4.01546645 9.35734284 3.51241387 5.875 3.0625 C5.20114258 2.97351944 4.52728516 2.88453888 3.83300781 2.79286194 C-4.58704551 1.80723342 -13.04240722 1.83464751 -21.5078125 1.74609375 C-23.1750434 1.7254834 -24.84226957 1.70448599 -26.50949097 1.68312073 C-30.86588665 1.62832088 -35.22232613 1.57872872 -39.57879639 1.53027344 C-44.03694487 1.47974809 -48.49503093 1.42422518 -52.953125 1.36914062 C-61.67703031 1.26207505 -70.40098837 1.16051884 -79.125 1.0625 C-79.125 0.7325 -79.125 0.4025 -79.125 0.0625 C-52.73403179 -1.40779249 -26.38744849 -1.46593252 0 0 Z " fill="#D6DBEE" transform="translate(502.125,279.9375)"/>
<path d="M0 0 C2 1 2 1 2.74609375 3.07421875 C2.97425781 3.93660156 3.20242188 4.79898437 3.4375 5.6875 C4.2895421 8.72558949 5.12130402 11.23775589 6.5625 14.0625 C8.14858067 17.30362137 8.76621334 20.27436305 9.47265625 23.7890625 C10.08167603 26.3424343 11.11343933 28.61036855 12.2109375 30.98828125 C13.62718113 34.59900139 14.41522099 38.38173497 15.3125 42.1484375 C15.83663868 44.3224218 16.43350176 46.47900599 17.0625 48.625 C18.75381211 54.71372359 20.15804219 60.65573503 20 67 C19.34 67 18.68 67 18 67 C16.13216954 61.51324804 15.7641604 56.77807024 16 51 C15.34 51 14.68 51 14 51 C13.74605469 49.77023437 13.49210938 48.54046875 13.23046875 47.2734375 C12.88324206 45.6405336 12.53556177 44.00772611 12.1875 42.375 C12.02185547 41.56675781 11.85621094 40.75851562 11.68554688 39.92578125 C10.66542065 35.19085575 9.28483168 31.3100234 7 27 C6.8125 24.125 6.8125 24.125 7 22 C6.34 22 5.68 22 5 22 C4.72285156 21.00097656 4.44570313 20.00195312 4.16015625 18.97265625 C3.79444451 17.66922209 3.42854962 16.36583931 3.0625 15.0625 C2.88009766 14.40314453 2.69769531 13.74378906 2.50976562 13.06445312 C1.77403899 9.76178827 1.77403899 9.76178827 0 7 C-0.04092937 4.66702567 -0.04241723 2.33294775 0 0 Z " fill="#7E90D3" transform="translate(854,307)"/>
<path d="M0 0 C1.38961209 3.87158329 0.67664713 7.11315707 0.0703125 11.12109375 C-1.53205886 23.06234039 -1.21603659 35.03965803 -1.125 47.0625 C-1.11494327 49.39387633 -1.10582222 51.7252569 -1.09765625 54.05664062 C-1.07587203 59.70452119 -1.04261075 65.35224011 -1 71 C-4.94125366 68.30407715 -4.94125366 68.30407715 -5.4699707 65.56738281 C-5.45538818 64.62217773 -5.44080566 63.67697266 -5.42578125 62.703125 C-5.41740234 61.6615625 -5.40902344 60.62 -5.40039062 59.546875 C-5.37138672 58.45890625 -5.34238281 57.3709375 -5.3125 56.25 C-5.30283203 55.1775 -5.29316406 54.105 -5.28320312 53 C-5.20627391 47.56812844 -4.82003653 42.37439323 -4 37 C-3.79107821 33.83581701 -3.68223286 30.66864468 -3.5625 27.5 C-2.58734283 5.17468566 -2.58734283 5.17468566 0 0 Z " fill="#C6CDE7" transform="translate(186,517)"/>
<path d="M0 0 C0.33 0 0.66 0 1 0 C1.09765625 6.15234375 1.09765625 6.15234375 1 8 C0.67 8.33 0.34 8.66 0 9 C-0.36760731 11.32817964 -0.70241581 13.6618385 -1 16 C-1.66 16 -2.32 16 -3 16 C-3.1340625 16.99515625 -3.268125 17.9903125 -3.40625 19.015625 C-3.96833582 22.95418408 -4.7283706 26.8480861 -5.5 30.75 C-6.61258768 36.48082587 -7.41887549 42.12608514 -7.7890625 47.9609375 C-8 50 -8 50 -9 52 C-9.20092783 53.49579604 -9.36336066 54.99696724 -9.5 56.5 C-9.88888889 60.77777778 -9.88888889 60.77777778 -11 63 C-11.38787256 65.20266316 -11.73709495 67.41224568 -12.0625 69.625 C-12.23910156 70.81351562 -12.41570312 72.00203125 -12.59765625 73.2265625 C-12.79681641 74.59941406 -12.79681641 74.59941406 -13 76 C-13.33 76 -13.66 76 -14 76 C-13.85982174 73.02046641 -13.71313658 70.04150696 -13.5625 67.0625 C-13.50352539 65.78729492 -13.50352539 65.78729492 -13.44335938 64.48632812 C-13.40146484 63.67744141 -13.35957031 62.86855469 -13.31640625 62.03515625 C-13.27974854 61.2862915 -13.24309082 60.53742676 -13.20532227 59.76586914 C-13 58 -13 58 -12 57 C-11.71516848 55.52625783 -11.48564135 54.04172118 -11.28125 52.5546875 C-11.08982422 51.18570313 -11.08982422 51.18570313 -10.89453125 49.7890625 C-10.76433594 48.82742188 -10.63414062 47.86578125 -10.5 46.875 C-10.36980469 45.9365625 -10.23960937 44.998125 -10.10546875 44.03125 C-9.85125282 42.1978139 -9.59860219 40.36415996 -9.34765625 38.53027344 C-8.91091892 35.35165992 -8.45744051 32.17569274 -8 29 C-7.34 29 -6.68 29 -6 29 C-6.03480469 28.443125 -6.06960937 27.88625 -6.10546875 27.3125 C-6.28551118 22.23701805 -5.71479773 18.46768333 -3.734375 13.796875 C-2.82696333 11.57661241 -2.36948273 9.3646895 -2 7 C-1.34 7 -0.68 7 0 7 C0 4.69 0 2.38 0 0 Z " fill="#A7B2DD" transform="translate(201,435)"/>
<path d="M0 0 C1.134375 0.03609375 2.26875 0.0721875 3.4375 0.109375 C5.3246875 0.20992188 5.3246875 0.20992188 7.25 0.3125 C8.31541016 0.36180664 8.31541016 0.36180664 9.40234375 0.41210938 C22.98205645 1.04455645 22.98205645 1.04455645 24.25 2.3125 C26.26564712 2.63808177 28.28799394 2.92252447 30.3125 3.1875 C35.69943282 3.97062239 40.26407411 5.16170844 45.25 7.3125 C42.62581964 8.62459018 41.39301374 8.12640767 38.53125 7.5703125 C37.59925781 7.39113281 36.66726563 7.21195312 35.70703125 7.02734375 C34.24330078 6.73537109 34.24330078 6.73537109 32.75 6.4375 C31.77417969 6.25058594 30.79835938 6.06367188 29.79296875 5.87109375 C22.53709609 4.45604804 22.53709609 4.45604804 20.25 3.3125 C16.49311998 2.83908358 12.71644584 2.65857179 8.9375 2.4375 C7.89142578 2.35242188 6.84535156 2.26734375 5.76757812 2.1796875 C0.36748563 1.71198618 0.36748563 1.71198618 -4.59521484 3.42089844 C-6.15423303 4.89957236 -6.15423303 4.89957236 -7.75 7.3125 C-7.09 7.9725 -6.43 8.6325 -5.75 9.3125 C-7.4 9.3125 -9.05 9.3125 -10.75 9.3125 C-10.41354706 6.2844235 -9.96071675 4.58126141 -8.0625 2.16015625 C-5.13293461 -0.18052691 -3.71095351 -0.13657062 0 0 Z " fill="#D9DEEF" transform="translate(540.75,258.6875)"/>
<path d="M0 0 C0.66 0.33 1.32 0.66 2 1 C-0.3772433 3.62747944 -2.97683181 5.18609908 -6 7 C-7.8354799 8.33378575 -7.8354799 8.33378575 -9 10 C-9 11.32 -9 12.64 -9 14 C-15.5 17 -15.5 17 -20 17 C-20 17.66 -20 18.32 -20 19 C-21.98 19.33 -23.96 19.66 -26 20 C-22.02078105 15.77207987 -17.67992506 12.41928104 -13 9 C-11.60346267 7.9384255 -10.2076135 6.875945 -8.8125 5.8125 C-3.10906375 1.55453187 -3.10906375 1.55453187 0 0 Z " fill="#9EA5D3" transform="translate(292,305)"/>
<path d="M0 0 C0.9590625 -0.03738281 1.918125 -0.07476562 2.90625 -0.11328125 C9.96719063 -0.20178886 9.96719063 -0.20178886 13.2890625 2.7109375 C14.625 5.375 14.625 5.375 14.625 8.375 C13.965 8.375 13.305 8.375 12.625 8.375 C12.315625 7.570625 12.00625 6.76625 11.6875 5.9375 C10.86164655 3.48419595 10.86164655 3.48419595 9.625 2.375 C0.53800211 1.81034551 -8.47774166 2.43094196 -17.375 4.375 C-17.705 4.705 -18.035 5.035 -18.375 5.375 C-21.23377909 5.61201239 -24.07383297 5.79719182 -26.9375 5.9375 C-27.74380859 5.98068359 -28.55011719 6.02386719 -29.38085938 6.06835938 C-31.37868805 6.17475262 -33.3768207 6.27540888 -35.375 6.375 C-35.375 6.045 -35.375 5.715 -35.375 5.375 C-34.53195312 5.24222656 -33.68890625 5.10945313 -32.8203125 4.97265625 C-31.72460938 4.79605469 -30.62890625 4.61945313 -29.5 4.4375 C-27.86417969 4.17646484 -27.86417969 4.17646484 -26.1953125 3.91015625 C-23.43678454 3.51948841 -23.43678454 3.51948841 -21.375 2.375 C-19.07690464 2.06630062 -16.77779871 1.86616352 -14.46875 1.65625 C-2.40104773 0.03521537 -2.40104773 0.03521537 0 0 Z " fill="#ABB6DF" transform="translate(375.375,257.625)"/>
<path d="M0 0 C2 1 2 1 3.125 3.6875 C5.87658211 14.47370186 3.69068452 25.46148563 1 36 C0.67 36 0.34 36 0 36 C0 24.12 0 12.24 0 0 Z " fill="#A5AED7" transform="translate(591,470)"/>
<path d="M0 0 C2.81288705 0.14019692 5.62516885 0.28687955 8.4375 0.4375 C9.23994141 0.47681641 10.04238281 0.51613281 10.86914062 0.55664062 C16.88671875 0.88671875 16.88671875 0.88671875 18 2 C19.66204487 2.20775561 21.33029491 2.36718255 23 2.5 C27.88888889 2.88888889 27.88888889 2.88888889 29 4 C30.51469448 4.23192865 32.03754562 4.41215238 33.5625 4.5625 C34.38878906 4.64628906 35.21507812 4.73007812 36.06640625 4.81640625 C36.70449219 4.87699219 37.34257813 4.93757813 38 5 C38 5.66 38 6.32 38 7 C40.31 7.33 42.62 7.66 45 8 C41.28523623 9.23825459 38.81171187 8.70587257 35 8 C34.505 7.505 34.505 7.505 34 7 C31.65774372 6.58048858 29.32733632 6.21382783 26.97265625 5.87890625 C25.52665867 5.66363996 24.08069619 5.44813784 22.63476562 5.23242188 C20.34623164 4.89579321 18.05738163 4.5617632 15.76782227 4.23217773 C13.56413478 3.91329482 11.36214887 3.58426097 9.16015625 3.25390625 C8.13040428 3.11004234 8.13040428 3.11004234 7.07984924 2.96327209 C2.22667352 2.22667352 2.22667352 2.22667352 0 0 Z " fill="#A8B3DE" transform="translate(501,280)"/>
<path d="M0 0 C0.66 0.33 1.32 0.66 2 1 C2.04254356 2.99954746 2.04080783 5.00041636 2 7 C1.67 7.33 1.34 7.66 1 8 C0.9175 9.11375 0.835 10.2275 0.75 11.375 C0 15 0 15 -2.5625 16.9375 C-3.366875 17.288125 -4.17125 17.63875 -5 18 C-5.042721 16.33388095 -5.04063832 14.66617115 -5 13 C-4.67 12.67 -4.34 12.34 -4 12 C-3.75726677 9.45130108 -3.61633133 6.90395468 -3.4765625 4.34765625 C-3 2 -3 2 0 0 Z " fill="#8C99D4" transform="translate(47,374)"/>
<path d="M0 0 C0.95648437 0.16242187 1.91296875 0.32484375 2.8984375 0.4921875 C7.47584454 1.14412821 12.00890859 1.14663793 16.625 1.125 C17.45773437 1.12886719 18.29046875 1.13273438 19.1484375 1.13671875 C23.22905986 1.13022094 27.01986352 1.02346367 31 0 C30.01 1.485 30.01 1.485 29 3 C19.97471514 4.60126022 9.65171975 5.4606879 1 2 C0.67 1.34 0.34 0.68 0 0 Z " fill="#B4BCDD" transform="translate(531,537)"/>
<path d="M0 0 C0 0.33 0 0.66 0 1 C-5.05002222 2.03590199 -9.87416389 2.10251672 -15 2 C-15 2.66 -15 3.32 -15 4 C-21.6 4 -28.2 4 -35 4 C-35 3.67 -35 3.34 -35 3 C-30.66749763 2.49262223 -26.33388373 1.99542852 -22 1.5 C-20.77925781 1.35691406 -19.55851563 1.21382812 -18.30078125 1.06640625 C-12.1593321 0.36926878 -6.18121183 -0.18543635 0 0 Z " fill="#C4C8E2" transform="translate(626,652)"/>
<path d="M0 0 C0.33 0 0.66 0 1 0 C1.125 7.75 1.125 7.75 0 10 C-0.20092783 11.49579604 -0.36336066 12.99696724 -0.5 14.5 C-0.88888889 18.77777778 -0.88888889 18.77777778 -2 21 C-2.38787256 23.20266316 -2.73709495 25.41224568 -3.0625 27.625 C-3.23910156 28.81351562 -3.41570312 30.00203125 -3.59765625 31.2265625 C-3.73042969 32.14179688 -3.86320313 33.05703125 -4 34 C-4.33 34 -4.66 34 -5 34 C-4.88519969 31.14509764 -4.75847036 28.2915412 -4.625 25.4375 C-4.5940625 24.63763672 -4.563125 23.83777344 -4.53125 23.01367188 C-4.2884469 18.05644182 -3.5246815 13.75885438 -2 9 C-1.60825846 7.35807097 -1.23042167 5.71267205 -0.875 4.0625 C-0.62363281 2.90427734 -0.62363281 2.90427734 -0.3671875 1.72265625 C-0.24601563 1.15417969 -0.12484375 0.58570313 0 0 Z " fill="#C6CDE7" transform="translate(192,477)"/>
<path d="M0 0 C2.91697011 0.14104691 5.8334802 0.28764814 8.75 0.4375 C9.9875 0.49647461 9.9875 0.49647461 11.25 0.55664062 C12.44882812 0.61948242 12.44882812 0.61948242 13.671875 0.68359375 C14.4050293 0.72025146 15.13818359 0.75690918 15.89355469 0.79467773 C18.01613761 1.00157299 19.93513168 1.4802298 22 2 C23.36676632 2.13929356 24.7374567 2.24365301 26.109375 2.31640625 C27.24052734 2.37924805 27.24052734 2.37924805 28.39453125 2.44335938 C29.56048828 2.50233398 29.56048828 2.50233398 30.75 2.5625 C31.93916016 2.62727539 31.93916016 2.62727539 33.15234375 2.69335938 C35.10137815 2.79902991 37.05066748 2.89997966 39 3 C39 3.33 39 3.66 39 4 C31.08 4 23.16 4 15 4 C15 3.34 15 2.68 15 2 C14.12988281 2.01740234 14.12988281 2.01740234 13.2421875 2.03515625 C8.7001754 2.08762174 4.47286431 1.91751063 0 1 C0 0.67 0 0.34 0 0 Z " fill="#CED1E6" transform="translate(289,652)"/>
<path d="M0 0 C2.95960949 1.47980474 3.88643777 3.83337538 5.1796875 6.76953125 C7.00494807 13.95758119 6.26951127 21.64084506 6 29 C5.67 29 5.34 29 5 29 C5 24.71 5 20.42 5 16 C4.34 16 3.68 16 3 16 C2.87625 14.80375 2.7525 13.6075 2.625 12.375 C2.17772079 8.71897867 1.24105038 5.47494107 0 2 C0 1.34 0 0.68 0 0 Z " fill="#A6ADD6" transform="translate(415,465)"/>
<path d="M0 0 C1.64574566 -0.02688151 3.29161413 -0.04634123 4.9375 -0.0625 C5.85402344 -0.07410156 6.77054688 -0.08570313 7.71484375 -0.09765625 C10 0 10 0 11 1 C13.01564712 1.32558177 15.03799394 1.61002447 17.0625 1.875 C22.44943282 2.65812239 27.01407411 3.84920844 32 6 C29.42695145 7.28652427 28.32791317 6.84508021 25.52734375 6.29296875 C24.62693359 6.11830078 23.72652344 5.94363281 22.79882812 5.76367188 C21.85458984 5.57353516 20.91035156 5.38339844 19.9375 5.1875 C19.02033203 5.00896484 18.10316406 4.83042969 17.15820312 4.64648438 C11.41780402 3.51955982 5.70568865 2.29064196 0 1 C0 0.67 0 0.34 0 0 Z " fill="#AAB5DE" transform="translate(554,260)"/>
<path d="M0 0 C1.14984375 -0.02449219 2.2996875 -0.04898437 3.484375 -0.07421875 C5.14339844 -0.08001953 5.14339844 -0.08001953 6.8359375 -0.0859375 C7.84962402 -0.09415527 8.86331055 -0.10237305 9.90771484 -0.11083984 C13.28932902 0.4937794 14.46600223 1.77712399 16.625 4.375 C13.655 4.045 10.685 3.715 7.625 3.375 C7.625 2.715 7.625 2.055 7.625 1.375 C-3.265 1.87 -3.265 1.87 -14.375 2.375 C-10.73709965 -1.26290035 -4.91694709 0.00547544 0 0 Z " fill="#ACB2D8" transform="translate(546.375,435.625)"/>
<path d="M0 0 C0.66 0.33 1.32 0.66 2 1 C1.14148438 1.53109375 0.28296875 2.0621875 -0.6015625 2.609375 C-4.30001236 5.07500824 -7.29217972 8.068225 -10.375 11.25 C-10.92027344 11.80429687 -11.46554687 12.35859375 -12.02734375 12.9296875 C-13.35622977 14.28188731 -14.67878548 15.6403035 -16 17 C-16.66 16.67 -17.32 16.34 -18 16 C-17.360625 15.401875 -16.72125 14.80375 -16.0625 14.1875 C-13.79689611 12.09189663 -13.79689611 12.09189663 -13 9 C-12.34 9 -11.68 9 -11 9 C-11 8.34 -11 7.68 -11 7 C-9.05017465 5.59431196 -7.04049422 4.2704964 -5 3 C-4.0925 2.401875 -3.185 1.80375 -2.25 1.1875 C-1.5075 0.795625 -0.765 0.40375 0 0 Z " fill="#8F98CD" transform="translate(351,440)"/>
<path d="M0 0 C1.20028809 2.40057617 1.10030345 3.85977472 1.0625 6.53515625 C1.05476563 7.42654297 1.04703125 8.31792969 1.0390625 9.23632812 C1.02617187 10.16896484 1.01328125 11.10160156 1 12.0625 C0.97460434 13.90749493 0.95353273 15.75255621 0.9375 17.59765625 C0.92589844 18.41758057 0.91429687 19.23750488 0.90234375 20.08227539 C0.78568827 22.00909839 0.78568827 22.00909839 2 23 C2.14115161 25.67058851 2.04247107 28.32432238 2 31 C-0.69734879 26.95397682 -1.12735881 24.2470295 -1.1328125 19.4921875 C-1.13410156 18.42355469 -1.13539063 17.35492188 -1.13671875 16.25390625 C-1.13285156 15.13886719 -1.12898438 14.02382813 -1.125 12.875 C-1.12886719 11.75222656 -1.13273437 10.62945312 -1.13671875 9.47265625 C-1.13542969 8.40660156 -1.13414062 7.34054687 -1.1328125 6.2421875 C-1.13168457 5.2610498 -1.13055664 4.27991211 -1.12939453 3.26904297 C-1 1 -1 1 0 0 Z " fill="#A7AED6" transform="translate(324,474)"/>
<path d="M0 0 C3.71055458 5.56583188 4.27621567 11.36872838 4.625 17.9375 C4.66367187 18.62134766 4.70234375 19.30519531 4.7421875 20.00976562 C4.83522412 21.67279513 4.91863787 23.33635847 5 25 C0.10605128 17.65907692 0.45591786 8.54246091 0 0 Z " fill="#BEC4E2" transform="translate(726,474)"/>
<path d="M0 0 C1.97909398 -0.02686553 3.95828971 -0.04633375 5.9375 -0.0625 C7.03964844 -0.07410156 8.14179688 -0.08570313 9.27734375 -0.09765625 C12 0 12 0 13 1 C15.68862664 1.39993686 18.36352217 1.75134543 21.0625 2.0625 C21.82111328 2.15337891 22.57972656 2.24425781 23.36132812 2.33789062 C25.2404301 2.5624374 27.12016095 2.78170978 29 3 C29 3.33 29 3.66 29 4 C26.04132082 3.85953745 23.08317736 3.71287776 20.125 3.5625 C19.28324219 3.52318359 18.44148438 3.48386719 17.57421875 3.44335938 C16.76855469 3.40146484 15.96289062 3.35957031 15.1328125 3.31640625 C14.38918457 3.27974854 13.64555664 3.24309082 12.87939453 3.20532227 C11 3 11 3 9 2 C7.46331135 1.77532169 5.92031946 1.59203195 4.375 1.4375 C3.55773437 1.35371094 2.74046875 1.26992188 1.8984375 1.18359375 C1.27195312 1.12300781 0.64546875 1.06242188 0 1 C0 0.67 0 0.34 0 0 Z " fill="#586ABB" transform="translate(394,871)"/>
<path d="M0 0 C2.06328885 5.82739688 -0.60728995 12.6150276 -2.87109375 18.1171875 C-3.53120274 19.43740549 -4.25626189 20.72502038 -5 22 C-6.14312468 18.57062595 -5.83139962 17.71461649 -4.75 14.375 C-4.47027344 13.4984375 -4.19054687 12.621875 -3.90234375 11.71875 C-3.60457031 10.8215625 -3.30679688 9.924375 -3 9 C-2.71253906 8.1234375 -2.42507813 7.246875 -2.12890625 6.34375 C-1.42853523 4.22588164 -0.71915161 2.11155155 0 0 Z " fill="#5568BB" transform="translate(867,564)"/>
<path d="M0 0 C0.66 0.33 1.32 0.66 2 1 C-0.3772433 3.62747944 -2.97683181 5.18609908 -6 7 C-7.75149165 8.58245275 -7.75149165 8.58245275 -9 10 C-8.67 10.66 -8.34 11.32 -8 12 C-9.98 12.33 -11.96 12.66 -14 13 C-13.06409496 11.8944811 -12.12620142 10.79064547 -11.1875 9.6875 C-10.66542969 9.07261719 -10.14335937 8.45773437 -9.60546875 7.82421875 C-6.68234243 4.50280758 -3.98080682 2.04143939 0 0 Z " fill="#9099CE" transform="translate(292,305)"/>
<path d="M0 0 C0.66 0.33 1.32 0.66 2 1 C-0.46995218 3.77765666 -3.18000819 5.36586602 -6.4375 7.125 C-7.38496094 7.64320313 -8.33242188 8.16140625 -9.30859375 8.6953125 C-11.58574366 9.79918488 -13.53109526 10.52139435 -16 11 C-12.78153116 7.56163578 -8.99911839 5.42134121 -5 3 C-3.576875 2.071875 -3.576875 2.071875 -2.125 1.125 C-1.42375 0.75375 -0.7225 0.3825 0 0 Z " fill="#ACB7DF" transform="translate(277,289)"/>
<path d="M0 0 C0.33 1.32 0.66 2.64 1 4 C1.66 4 2.32 4 3 4 C2.71872579 5.48117801 2.42466268 6.95993249 2.125 8.4375 C1.96257813 9.26121094 1.80015625 10.08492187 1.6328125 10.93359375 C1.42398438 11.61550781 1.21515625 12.29742188 1 13 C0.01 13.495 0.01 13.495 -1 14 C-2.59789351 9.04653013 -1.28306814 4.86717585 0 0 Z " fill="#4F5EB9" transform="translate(873,538)"/>
<path d="M0 0 C4.42761914 1.39153744 6.9556255 3.52071486 10 7 C10 7.66 10 8.32 10 9 C6.17902761 8.46930939 3.93828597 7.50298434 1 5 C1.99 4.67 2.98 4.34 4 4 C2.68 2.68 1.36 1.36 0 0 Z " fill="#CACDE3" transform="translate(637,318)"/>
<path d="M0 0 C14.78132118 0.77904328 14.78132118 0.77904328 21 3 C21 3.33 21 3.66 21 4 C13.25 4.125 13.25 4.125 11 3 C8.70075503 2.72975292 6.40198513 2.55502159 4.09375 2.37890625 C2 2 2 2 0 0 Z " fill="#B4BADC" transform="translate(397,609)"/>
<path d="M0 0 C0.66 0.33 1.32 0.66 2 1 C2 1.33 2 1.66 2 2 C2.66 2.33 3.32 2.66 4 3 C2.35 3.33 0.7 3.66 -1 4 C-1 4.66 -1 5.32 -1 6 C-2.98 6.33 -4.96 6.66 -7 7 C-4.66666667 4.66666667 -2.33333333 2.33333333 0 0 Z " fill="#B1B7DB" transform="translate(273,318)"/>
<path d="M0 0 C0.66 0.66 1.32 1.32 2 2 C2.99 1.67 3.98 1.34 5 1 C4.34 2.98 3.68 4.96 3 7 C2.01 7 1.02 7 0 7 C-1.68798827 8.43750191 -1.68798827 8.43750191 -3 10 C-2.21302675 6.58978257 -1.12880057 3.31114834 0 0 Z " fill="#5459BA" transform="translate(842,631)"/>
<path d="M0 0 C-1.36983503 3.16115776 -1.9890638 3.9927092 -5 6 C-5 5.34 -5 4.68 -5 4 C-6.32 4.33 -7.64 4.66 -9 5 C-6.3784932 1.13015663 -4.82784953 0 0 0 Z " fill="#949ED1" transform="translate(646,563)"/>
<path d="M0 0 C5.56890517 0.47986031 10.67067568 1.29915181 16 3 C16 3.66 16 4.32 16 5 C10.53135543 3.98408579 5.23609987 2.92908943 0 1 C0 0.67 0 0.34 0 0 Z " fill="#C6CAE3" transform="translate(271,647)"/>
<path d="M0 0 C1.98 0 3.96 0 6 0 C4.24135754 2.1793144 3.30604 2.93686419 0.51953125 3.51171875 C-0.37378906 3.56972656 -1.26710938 3.62773438 -2.1875 3.6875 C-3.08855469 3.75324219 -3.98960937 3.81898438 -4.91796875 3.88671875 C-5.94857422 3.94279297 -5.94857422 3.94279297 -7 4 C-7 3.34 -7 2.68 -7 2 C-4.69 2 -2.38 2 0 2 C0 1.34 0 0.68 0 0 Z " fill="#ACB4DA" transform="translate(638,648)"/>
<path d="M0 0 C0.66 0 1.32 0 2 0 C2.125 3.375 2.125 3.375 2 7 C1.34 7.66 0.68 8.32 0 9 C-1.36623674 6.26752652 -1.128426 4.01801098 -1 1 C-0.67 0.67 -0.34 0.34 0 0 Z " fill="#4D5CBB" transform="translate(876,526)"/>
<path d="M0 0 C0.33 0.66 0.66 1.32 1 2 C0.00390625 4.6015625 0.00390625 4.6015625 -1.4375 7.625 C-1.91058594 8.62789063 -2.38367188 9.63078125 -2.87109375 10.6640625 C-3.24363281 11.43492187 -3.61617187 12.20578125 -4 13 C-4.33 13 -4.66 13 -5 13 C-5.20140476 9.37471432 -4.85776765 7.13498292 -3 4 C-2.34 4 -1.68 4 -1 4 C-0.67 2.68 -0.34 1.36 0 0 Z " fill="#ACB7DF" transform="translate(234,341)"/>
<path d="M0 0 C-3.95523655 2.75668002 -7.22423661 3.5317879 -12 4 C-11 2 -11 2 -9.00390625 1.11328125 C-7.79541016 0.71689453 -7.79541016 0.71689453 -6.5625 0.3125 C-5.75941406 0.04050781 -4.95632813 -0.23148437 -4.12890625 -0.51171875 C-2 -1 -2 -1 0 0 Z " fill="#B2BCE2" transform="translate(333,267)"/>
<path d="M0 0 C0.75 1.6875 0.75 1.6875 1 4 C-0.8125 6.75 -0.8125 6.75 -3 9 C-3.66 9 -4.32 9 -5 9 C-3.50163895 5.88801935 -1.80066242 2.9465385 0 0 Z " fill="#CBCFE6" transform="translate(587,513)"/>
<path d="M0 0 C4.77576339 0.4682121 8.04476345 1.24331998 12 4 C9.3333581 5.33332095 7.83319697 4.67102033 5 4 C5 3.34 5 2.68 5 2 C3.35 1.67 1.7 1.34 0 1 C0 0.67 0 0.34 0 0 Z " fill="#9FA7D3" transform="translate(382,437)"/>
<path d="M0 0 C2.97 1.98 2.97 1.98 6 4 C3.39417629 4.93065133 2.35801776 5.14917407 -0.25 4.0625 C-0.8275 3.711875 -1.405 3.36125 -2 3 C-1.34 2.67 -0.68 2.34 0 2 C0 1.34 0 0.68 0 0 Z " fill="#8A93CB" transform="translate(636,318)"/>
<path d="M0 0 C0 4.38968456 -2.12805101 5.76905739 -5 9 C-5.33 8.34 -5.66 7.68 -6 7 C-4.02 4.69 -2.04 2.38 0 0 Z " fill="#B7BDDD" transform="translate(349,628)"/>
<path d="M0 0 C-0.94875 0.45375 -1.8975 0.9075 -2.875 1.375 C-6.00313679 2.80238254 -6.00313679 2.80238254 -8 5 C-8 3.68 -8 2.36 -8 1 C-2.25 -1.125 -2.25 -1.125 0 0 Z " fill="#B1B7DE" transform="translate(570,616)"/>
</svg>
